# https://github.com/mikedh/trimesh
mtllib head_link1.mtl
usemtl plastic_black.001
v 0.00310100 -0.03115200 -0.03759400
v -0.00141900 -0.02883700 -0.09601100
v 0.00678000 -0.02916200 -0.08945700
v -0.00529400 -0.03067400 -0.03786400
v -0.00810000 -0.03007400 -0.03712900
v -0.00810000 -0.03007400 -0.03712900
v 0.00618000 0.02672200 0.02810900
v -0.01801800 0.02676800 0.02274500
v 0.01447900 0.03565700 -0.03802000
v -0.00465500 0.02836700 -0.09664300
v -0.01458400 0.03567500 -0.03808700
v -0.01801800 0.02676800 0.02274500
v 0.00618000 0.02672200 0.02810900
v -0.00178600 0.03429500 0.02726000
v -0.02740500 0.03409300 0.00719200
v -0.01801800 0.02676800 0.02274500
v -0.00178600 0.03429500 0.02726000
v 0.02574500 0.03193500 0.01267300
v 0.02818800 0.03399900 -0.00111500
v -0.00178600 0.03429500 0.02726000
v -0.02740500 0.03409300 0.00719200
v -0.01730600 -0.02439900 -0.08989400
v -0.02698000 -0.01552400 -0.03638500
v -0.02771600 -0.01041900 -0.09097900
v -0.01730600 -0.02439900 -0.08989400
v 0.02755500 -0.01111900 -0.09048300
v 0.02338600 -0.02102000 -0.03762500
v 0.01742200 -0.02436700 -0.09091500
v -0.00141900 -0.02883700 -0.09601100
v 0.02755500 -0.01111900 -0.09048300
v 0.01742200 -0.02436700 -0.09091500
v 0.01262400 -0.02878300 -0.03777100
v -0.03085000 -0.00145800 -0.03642800
v -0.02426500 0.01750300 -0.08985800
v -0.00465500 0.02836700 -0.09664300
v -0.02866400 0.00513300 -0.09180300
v -0.02866400 0.00513300 -0.09180300
v 0.02534700 0.01497800 -0.09161400
v -0.00465500 0.02836700 -0.09664300
v -0.00465500 0.02836700 -0.09664300
v 0.01649900 0.02474800 -0.09043700
v 0.01649900 0.02474800 -0.09043700
v 0.02818800 0.03399900 -0.00111500
v 0.02534700 0.01497800 -0.09161400
v 0.02574500 0.03193500 0.01267300
v -0.00178600 0.03429500 0.02726000
v 0.01857500 0.02669700 0.02179600
v 0.00618000 0.02672200 0.02810900
v 0.01262400 -0.02878300 -0.03777100
v 0.02338600 -0.02102000 -0.03762500
v 0.01857500 0.02669700 0.02179600
v 0.02971800 -0.00793500 -0.03605500
v 0.03057800 0.00580400 -0.03804800
v 0.02818800 0.03399900 -0.00111500
v 0.02971800 -0.00793500 -0.03605500
v 0.02916200 -0.00035000 -0.09196100
v 0.02534700 0.01497800 -0.09161400
v 0.02916200 -0.00035000 -0.09196100
v -0.01725600 -0.02617300 -0.03709500
v -0.02698000 -0.01552400 -0.03638500
v -0.01725600 -0.02617300 -0.03709500
v -0.01725600 -0.02617300 -0.03709500
v -0.02801200 0.03389800 -0.00327400
v -0.02740500 0.03409300 0.00719200
v -0.02801200 0.03389800 -0.00327400
v -0.02426500 0.01750300 -0.08985800
v -0.01801800 0.02676800 0.02274500
v -0.02740500 0.03409300 0.00719200
v -0.02696700 0.02700100 0.00990300
v -0.01801800 0.02676800 0.02274500
v -0.02696700 0.02700100 0.00990300
v -0.02696700 0.02700100 0.00990300
v -0.00689700 -0.02684400 -0.09706100
v -0.01730600 -0.02439900 -0.08989400
v -0.02771600 -0.01041900 -0.09097900
v -0.00689700 -0.02684400 -0.09706100
v -0.02866400 0.00513300 -0.09180300
v -0.00689700 -0.02684400 -0.09706100
v -0.02771600 -0.01041900 -0.09097900
v -0.00689700 -0.02684400 -0.09706100
v -0.01730100 0.02420600 -0.09023300
v -0.01458400 0.03567500 -0.03808700
v -0.00465500 0.02836700 -0.09664300
v -0.01730100 0.02420600 -0.09023300
v -0.02801200 0.03389800 -0.00327400
v -0.02426500 0.01750300 -0.08985800
v 0.02574500 0.03193500 0.01267300
v 0.02643700 0.02683400 0.01114000
v 0.02574500 0.03193500 0.01267300
v 0.01857500 0.02669700 0.02179600
v 0.02643700 0.02683400 0.01114000
v 0.02643700 0.02683400 0.01114000
v 0.02971800 -0.00793500 -0.03605500
v -0.00529400 -0.03067400 -0.03786400
v 0.00310100 -0.03115200 -0.03759400
v -0.00141900 -0.02883700 -0.09601100
v 0.01742200 -0.02436700 -0.09091500
v 0.00678000 -0.02916200 -0.08945700
vn 0.05940000 -0.99770000 -0.03170000
vn -0.17900000 -0.98190000 -0.06250000
vn 0.21610000 -0.97580000 -0.03330000
vn -0.13850000 -0.98950000 -0.04050000
vn -0.30070000 -0.95270000 -0.04300000
vn -0.14200000 -0.77680000 0.61360000
vn 0.08170000 -0.74510000 0.66190000
vn -0.36350000 -0.69590000 0.61930000
vn 0.16000000 0.98340000 -0.08580000
vn 0.11100000 0.98110000 -0.15820000
vn -0.04580000 0.99870000 -0.02140000
vn -0.21510000 -0.11760000 0.96950000
vn -0.21510000 -0.11760000 0.96950000
vn -0.21510000 -0.11760000 0.96950000
vn -0.46870000 0.65580000 0.59180000
vn -0.46870000 0.65580000 0.59180000
vn -0.46870000 0.65580000 0.59180000
vn 0.17640000 0.96840000 0.17620000
vn 0.10810000 0.98870000 0.10390000
vn 0.04700000 0.99680000 0.06400000
vn -0.09220000 0.99570000 0.00870000
vn -0.33220000 -0.94030000 -0.07370000
vn -0.88590000 -0.46220000 0.04060000
vn -0.94730000 -0.31830000 -0.03570000
vn -0.77020000 -0.63690000 -0.03360000
vn 0.91340000 -0.40580000 -0.03120000
vn 0.77600000 -0.63020000 -0.02580000
vn 0.60790000 -0.79320000 -0.03560000
vn 0.25330000 -0.13910000 -0.95730000
vn 0.29230000 -0.18540000 -0.93820000
vn 0.29950000 -0.19870000 -0.93320000
vn 0.41580000 -0.90910000 -0.02490000
vn -0.99540000 -0.08090000 0.05180000
vn -0.48940000 0.39910000 -0.77540000
vn -0.48940000 0.39920000 -0.77530000
vn -0.45380000 0.29370000 -0.84130000
vn -0.98940000 0.13190000 -0.06090000
vn 0.26230000 0.23620000 -0.93560000
vn 0.11440000 0.12490000 -0.98560000
vn 0.11420000 0.12490000 -0.98560000
vn 0.32020000 0.39370000 -0.86170000
vn 0.50090000 0.84770000 -0.17490000
vn 0.62550000 0.76350000 -0.16090000
vn 0.72130000 0.67300000 -0.16410000
vn 0.41010000 0.61370000 0.67470000
vn 0.40300000 0.55870000 0.72490000
vn 0.40300000 0.55870000 0.72480000
vn 0.39370000 0.50060000 0.77100000
vn 0.33200000 -0.71090000 0.61990000
vn 0.66670000 -0.56070000 0.49110000
vn 0.49750000 -0.65050000 0.57390000
vn 0.90060000 -0.43460000 -0.01040000
vn 0.99990000 0.00870000 0.01340000
vn 0.99590000 0.07190000 0.05510000
vn 0.99600000 -0.08010000 0.04040000
vn 0.19900000 -0.03630000 -0.97930000
vn 0.96670000 0.24250000 -0.08130000
vn 0.99820000 0.04160000 -0.04360000
vn -0.46550000 -0.66580000 0.58310000
vn -0.65990000 -0.56020000 0.50070000
vn -0.39190000 -0.91950000 -0.03050000
vn -0.73900000 -0.67330000 -0.02190000
vn -0.15510000 0.98790000 -0.00940000
vn -0.99700000 0.00120000 0.07780000
vn -0.98650000 0.16160000 -0.02550000
vn -0.93150000 0.34790000 -0.10620000
vn -0.80760000 0.16640000 0.56580000
vn -0.80760000 0.16640000 0.56580000
vn -0.80760000 0.16640000 0.56580000
vn -0.70360000 -0.52320000 0.48080000
vn -0.70360000 -0.52320000 0.48080000
vn -0.97540000 -0.14190000 0.16890000
vn -0.31530000 -0.93900000 -0.13750000
vn -0.57160000 -0.47740000 -0.66730000
vn -0.57160000 -0.47740000 -0.66730000
vn -0.57160000 -0.47740000 -0.66730000
vn -0.27210000 -0.02710000 -0.96190000
vn -0.27210000 -0.02710000 -0.96190000
vn -0.33020000 -0.07000000 -0.94130000
vn 0.15550000 -0.02150000 -0.98760000
vn -0.51680000 0.49800000 -0.69630000
vn -0.45510000 0.87430000 -0.16860000
vn -0.38810000 0.90420000 -0.17860000
vn -0.53810000 0.82590000 -0.16850000
vn -0.60770000 0.77760000 -0.16150000
vn -0.68870000 0.70640000 -0.16360000
vn 0.97970000 0.07730000 0.18510000
vn 0.98900000 0.01110000 0.14780000
vn 0.80320000 -0.06890000 0.59170000
vn 0.80320000 -0.06890000 0.59170000
vn 0.80320000 -0.06890000 0.59170000
vn 0.74970000 -0.49520000 0.43900000
vn 0.81380000 -0.43940000 0.38030000
vn -0.06520000 -0.88040000 0.46970000
vn 0.02910000 -0.80010000 0.59910000
vn 0.31820000 -0.83990000 -0.43970000
vn 0.31820000 -0.83990000 -0.43970000
vn 0.31820000 -0.83990000 -0.43970000
f 1//1 2//2 3//3
f 4//4 5//5 2//2
f 6//6 7//7 8//8
f 9//9 10//10 11//11
f 12//12 13//13 14//14
f 15//15 16//16 17//17
f 18//18 19//19 20//20
f 19//19 9//9 20//20
f 11//11 21//21 20//20
f 9//9 11//11 20//20
f 2//2 5//5 22//22
f 23//23 24//24 25//25
f 26//26 27//27 28//28
f 29//29 30//30 31//31
f 27//27 32//32 28//28
f 24//24 23//23 33//33
f 34//34 35//35 36//36
f 24//24 33//33 37//37
f 38//38 39//39 41//41
f 10//10 9//9 42//42
f 43//43 44//44 42//42
f 9//9 43//43 42//42
f 45//45 46//46 47//47
f 46//46 48//48 47//47
f 49//49 50//50 51//51
f 7//7 49//49 51//51
f 27//27 26//26 52//52
f 53//53 54//54 55//55
f 30//30 29//29 56//56
f 39//39 38//38 56//56
f 57//57 54//54 58//58
f 54//54 53//53 58//58
f 55//55 26//26 58//58
f 53//53 55//55 58//58
f 6//6 8//8 59//59
f 8//8 60//60 59//59
f 22//22 5//5 61//61
f 23//23 25//25 62//62
f 21//21 11//11 63//63
f 33//33 64//64 65//65
f 66//66 37//37 65//65
f 37//37 33//33 65//65
f 67//67 68//68 69//69
f 60//60 70//70 71//71
f 33//33 23//23 72//72
f 64//64 33//33 72//72
f 2//2 22//22 73//73
f 74//74 75//75 76//76
f 77//77 40//40 78//78
f 79//79 77//77 78//78
f 39//39 56//56 80//80
f 56//56 29//29 80//80
f 35//35 34//34 81//81
f 82//82 83//83 84//84
f 85//85 82//82 84//84
f 86//86 85//85 84//84
f 54//54 87//87 88//88
f 89//89 90//90 91//91
f 51//51 50//50 92//92
f 50//50 93//93 92//92
f 55//55 54//54 88//88
f 6//6 94//94 95//95
f 7//7 6//6 95//95
f 4//4 2//2 1//1
f 49//49 7//7 95//95
f 32//32 1//1 3//3
f 96//96 97//97 98//98
f 28//28 32//32 3//3

