mtllib material.mtl
usemtl camera
v -0.07994800 -0.00500000 -0.06856000
v -0.08005500 -0.00519600 -0.06979200
v -0.08015300 -0.00576400 -0.07090200
v -0.08023000 -0.00664900 -0.07178400
v -0.08027900 -0.00776400 -0.07235000
v -0.08029600 -0.00900000 -0.07254500
v -0.08027900 -0.01023600 -0.07235000
v -0.08023000 -0.01135100 -0.07178400
v -0.08015300 -0.01223600 -0.07090200
v -0.08005500 -0.01280400 -0.06979200
v -0.07994800 -0.01300000 -0.06856000
v -0.07994800 -0.00900000 -0.06856000
v -0.07977300 -0.00900000 -0.06656800
v -0.07994800 -0.00700000 -0.06856000
v -0.07977300 -0.00700000 -0.06656800
v -0.08012200 -0.00900000 -0.07055300
v -0.08012200 -0.00700000 -0.07055300
v -0.07994800 -0.01100000 -0.06856000
v -0.08012200 -0.01100000 -0.07055300
v -0.07977300 -0.01100000 -0.06656800
v -0.07987500 -0.01291300 -0.06773200
v -0.07980600 -0.01265400 -0.06694000
v -0.07974300 -0.01223600 -0.06621800
v -0.07968900 -0.01167700 -0.06559900
v -0.07964600 -0.01100000 -0.06510900
v -0.07961600 -0.01023600 -0.06477100
v -0.07960100 -0.00941800 -0.06459700
v -0.07960100 -0.00858200 -0.06459700
v -0.07961600 -0.00776400 -0.06477100
v -0.07964600 -0.00700000 -0.06510900
v -0.07968900 -0.00632300 -0.06559900
v -0.07974300 -0.00576400 -0.06621800
v -0.07980600 -0.00534600 -0.06694000
v -0.07987500 -0.00508700 -0.06773200
v -0.07994800 -0.00500000 -0.06856000
v -0.08223900 -0.01300000 -0.06836000
v -0.07994800 -0.01300000 -0.06856000
v -0.08071100 -0.01300000 -0.06849300
v -0.08147500 -0.01300000 -0.06842700
v -0.08223900 -0.00500000 -0.06836000
v -0.08147500 -0.00500000 -0.06842700
v -0.08071100 -0.00500000 -0.06849300
v -0.08005500 -0.00519600 -0.06979200
v -0.08015300 -0.00576400 -0.07090200
v -0.08023000 -0.00664900 -0.07178400
v -0.08027900 -0.00776400 -0.07235000
v -0.08029600 -0.00900000 -0.07254500
v -0.08027900 -0.01023600 -0.07235000
v -0.08023000 -0.01135100 -0.07178400
v -0.08015300 -0.01223600 -0.07090200
v -0.08005500 -0.01280400 -0.06979200
v -0.08234700 -0.01280400 -0.06959100
v -0.08244400 -0.01223600 -0.07070200
v -0.08252100 -0.01135100 -0.07158400
v -0.08257000 -0.01023600 -0.07215000
v -0.08258700 -0.00900000 -0.07234500
v -0.08257000 -0.00776400 -0.07215000
v -0.08252100 -0.00664900 -0.07158400
v -0.08244400 -0.00576400 -0.07070200
v -0.08234700 -0.00519600 -0.06959100
v -0.07994800 0.00500000 -0.06856000
v -0.08005500 0.00519600 -0.06979200
v -0.08015300 0.00576400 -0.07090200
v -0.08023000 0.00664900 -0.07178400
v -0.08027900 0.00776400 -0.07235000
v -0.08029600 0.00900000 -0.07254500
v -0.08027900 0.01023600 -0.07235000
v -0.08023000 0.01135100 -0.07178400
v -0.08015300 0.01223600 -0.07090200
v -0.08005500 0.01280400 -0.06979200
v -0.07994800 0.01300000 -0.06856000
v -0.07994800 0.00900000 -0.06856000
v -0.07994800 0.00700000 -0.06856000
v -0.07977300 0.00900000 -0.06656800
v -0.07977300 0.00700000 -0.06656800
v -0.08012200 0.00900000 -0.07055300
v -0.08012200 0.00700000 -0.07055300
v -0.07994800 0.01100000 -0.06856000
v -0.08012200 0.01100000 -0.07055300
v -0.07977300 0.01100000 -0.06656800
v -0.07987500 0.01291300 -0.06773200
v -0.07980600 0.01265400 -0.06694000
v -0.07974300 0.01223600 -0.06621800
v -0.07968900 0.01167700 -0.06559900
v -0.07964600 0.01100000 -0.06510900
v -0.07961600 0.01023600 -0.06477100
v -0.07960100 0.00941800 -0.06459700
v -0.07960100 0.00858200 -0.06459700
v -0.07961600 0.00776400 -0.06477100
v -0.07964600 0.00700000 -0.06510900
v -0.07968900 0.00632300 -0.06559900
v -0.07974300 0.00576400 -0.06621800
v -0.07980600 0.00534600 -0.06694000
v -0.07987500 0.00508700 -0.06773200
v -0.07994800 0.01300000 -0.06856000
v -0.08223900 0.00500000 -0.06836000
v -0.07994800 0.00500000 -0.06856000
v -0.08071100 0.00500000 -0.06849300
v -0.08147500 0.00500000 -0.06842700
v -0.08223900 0.01300000 -0.06836000
v -0.08147500 0.01300000 -0.06842700
v -0.08071100 0.01300000 -0.06849300
v -0.08005500 0.01280400 -0.06979200
v -0.08015300 0.01223600 -0.07090200
v -0.08023000 0.01135100 -0.07178400
v -0.08027900 0.01023600 -0.07235000
v -0.08029600 0.00900000 -0.07254500
v -0.08027900 0.00776400 -0.07235000
v -0.08023000 0.00664900 -0.07178400
v -0.08015300 0.00576400 -0.07090200
v -0.08005500 0.00519600 -0.06979200
v -0.08234700 0.00519600 -0.06959100
v -0.08244400 0.00576400 -0.07070200
v -0.08252100 0.00664900 -0.07158400
v -0.08257000 0.00776400 -0.07215000
v -0.08258700 0.00900000 -0.07234500
v -0.08257000 0.01023600 -0.07215000
v -0.08252100 0.01135100 -0.07158400
v -0.08244400 0.01223600 -0.07070200
v -0.08234700 0.01280400 -0.06959100
v -0.08359900 0.01560000 -0.08390000
v -0.08325900 0.01560000 -0.08001500
v -0.08291900 0.01560000 -0.07613000
v -0.08257900 0.01560000 -0.07224500
v -0.08223900 0.01560000 -0.06836000
v -0.08189900 0.01560000 -0.06447500
v -0.08155900 0.01560000 -0.06058900
v -0.08121900 0.01560000 -0.05670400
v -0.08087900 0.01560000 -0.05281900
v -0.08359900 0.01170000 -0.08390000
v -0.08325900 0.01170000 -0.08001500
v -0.08291900 0.01170000 -0.07613000
v -0.08257900 0.01170000 -0.07224500
v -0.08189900 0.01170000 -0.06447500
v -0.08155900 0.01170000 -0.06058900
v -0.08121900 0.01170000 -0.05670400
v -0.08087900 0.01170000 -0.05281900
v -0.08359900 0.00780000 -0.08390000
v -0.08325900 0.00780000 -0.08001500
v -0.08291900 0.00780000 -0.07613000
v -0.08155900 0.00780000 -0.06058900
v -0.08121900 0.00780000 -0.05670400
v -0.08087900 0.00780000 -0.05281900
v -0.08359900 0.00390000 -0.08390000
v -0.08325900 0.00390000 -0.08001500
v -0.08291900 0.00390000 -0.07613000
v -0.08257900 0.00390000 -0.07224500
v -0.08223900 0.00390000 -0.06836000
v -0.08189900 0.00390000 -0.06447500
v -0.08155900 0.00390000 -0.06058900
v -0.08121900 0.00390000 -0.05670400
v -0.08087900 0.00390000 -0.05281900
v -0.08359900 -0.00000000 -0.08390000
v -0.08325900 -0.00000000 -0.08001500
v -0.08291900 -0.00000000 -0.07613000
v -0.08257900 -0.00000000 -0.07224500
v -0.08223900 -0.00000000 -0.06836000
v -0.08189900 -0.00000000 -0.06447500
v -0.08155900 -0.00000000 -0.06058900
v -0.08121900 -0.00000000 -0.05670400
v -0.08087900 -0.00000000 -0.05281900
v -0.08359900 -0.00390000 -0.08390000
v -0.08325900 -0.00390000 -0.08001500
v -0.08291900 -0.00390000 -0.07613000
v -0.08257900 -0.00390000 -0.07224500
v -0.08223900 -0.00390000 -0.06836000
v -0.08189900 -0.00390000 -0.06447500
v -0.08155900 -0.00390000 -0.06058900
v -0.08121900 -0.00390000 -0.05670400
v -0.08087900 -0.00390000 -0.05281900
v -0.08359900 -0.00780000 -0.08390000
v -0.08325900 -0.00780000 -0.08001500
v -0.08291900 -0.00780000 -0.07613000
v -0.08155900 -0.00780000 -0.06058900
v -0.08121900 -0.00780000 -0.05670400
v -0.08087900 -0.00780000 -0.05281900
v -0.08359900 -0.01170000 -0.08390000
v -0.08325900 -0.01170000 -0.08001500
v -0.08291900 -0.01170000 -0.07613000
v -0.08257900 -0.01170000 -0.07224500
v -0.08189900 -0.01170000 -0.06447500
v -0.08155900 -0.01170000 -0.06058900
v -0.08121900 -0.01170000 -0.05670400
v -0.08087900 -0.01170000 -0.05281900
v -0.08359900 -0.01560000 -0.08390000
v -0.08325900 -0.01560000 -0.08001500
v -0.08291900 -0.01560000 -0.07613000
v -0.08257900 -0.01560000 -0.07224500
v -0.08223900 -0.01560000 -0.06836000
v -0.08189900 -0.01560000 -0.06447500
v -0.08155900 -0.01560000 -0.06058900
v -0.08121900 -0.01560000 -0.05670400
v -0.08087900 -0.01560000 -0.05281900
v -0.08223900 -0.01300000 -0.06836000
v -0.08234700 -0.01280400 -0.06959100
v -0.08244400 -0.01223600 -0.07070200
v -0.08252100 -0.01135100 -0.07158400
v -0.08257000 -0.01023600 -0.07215000
v -0.08258700 -0.00900000 -0.07234500
v -0.08257000 -0.00776400 -0.07215000
v -0.08252100 -0.00664900 -0.07158400
v -0.08244400 -0.00576400 -0.07070200
v -0.08234700 -0.00519600 -0.06959100
v -0.08223900 -0.00500000 -0.06836000
v -0.08240900 -0.01560000 -0.07030200
v -0.08223900 -0.01365000 -0.06836000
v -0.08257900 -0.01365000 -0.07224500
v -0.08240900 -0.01365000 -0.07030200
v -0.08274900 -0.01170000 -0.07418800
v -0.08274900 -0.00780000 -0.07418800
v -0.08291900 -0.00975000 -0.07613000
v -0.08274900 -0.00975000 -0.07418800
v -0.08240900 -0.00390000 -0.07030200
v -0.08223900 0.00500000 -0.06836000
v -0.08234700 0.00519600 -0.06959100
v -0.08244400 0.00576400 -0.07070200
v -0.08252100 0.00664900 -0.07158400
v -0.08257000 0.00776400 -0.07215000
v -0.08258700 0.00900000 -0.07234500
v -0.08257000 0.01023600 -0.07215000
v -0.08252100 0.01135100 -0.07158400
v -0.08244400 0.01223600 -0.07070200
v -0.08234700 0.01280400 -0.06959100
v -0.08223900 0.01300000 -0.06836000
v -0.08240900 0.00390000 -0.07030200
v -0.08274900 0.00780000 -0.07418800
v -0.08274900 0.01170000 -0.07418800
v -0.08291900 0.00975000 -0.07613000
v -0.08274900 0.00975000 -0.07418800
v -0.08223900 0.01365000 -0.06836000
v -0.08240900 0.01560000 -0.07030200
v -0.08257900 0.01365000 -0.07224500
v -0.08240900 0.01365000 -0.07030200
v -0.08216600 0.01291300 -0.06753100
v -0.08209700 0.01265400 -0.06673900
v -0.08203400 0.01223600 -0.06601800
v -0.08198000 0.01167700 -0.06539900
v -0.08193700 0.01100000 -0.06490900
v -0.08190700 0.01023600 -0.06457000
v -0.08189200 0.00941800 -0.06439700
v -0.08189200 0.00858200 -0.06439700
v -0.08190700 0.00776400 -0.06457000
v -0.08193700 0.00700000 -0.06490900
v -0.08198000 0.00632300 -0.06539900
v -0.08203400 0.00576400 -0.06601800
v -0.08209700 0.00534600 -0.06673900
v -0.08216600 0.00508700 -0.06753100
v -0.08189900 0.01365000 -0.06447500
v -0.08206900 0.01560000 -0.06641700
v -0.08206900 0.01365000 -0.06641700
v -0.08172900 0.00780000 -0.06253200
v -0.08155900 0.00975000 -0.06058900
v -0.08172900 0.01170000 -0.06253200
v -0.08172900 0.00975000 -0.06253200
v -0.08206900 0.00390000 -0.06641700
v -0.08216600 -0.00508700 -0.06753100
v -0.08209700 -0.00534600 -0.06673900
v -0.08203400 -0.00576400 -0.06601800
v -0.08198000 -0.00632300 -0.06539900
v -0.08193700 -0.00700000 -0.06490900
v -0.08190700 -0.00776400 -0.06457000
v -0.08189200 -0.00858200 -0.06439700
v -0.08189200 -0.00941800 -0.06439700
v -0.08190700 -0.01023600 -0.06457000
v -0.08193700 -0.01100000 -0.06490900
v -0.08198000 -0.01167700 -0.06539900
v -0.08203400 -0.01223600 -0.06601800
v -0.08209700 -0.01265400 -0.06673900
v -0.08216600 -0.01291300 -0.06753100
v -0.08206900 -0.00390000 -0.06641700
v -0.08172900 -0.01170000 -0.06253200
v -0.08155900 -0.00975000 -0.06058900
v -0.08172900 -0.00780000 -0.06253200
v -0.08172900 -0.00975000 -0.06253200
v -0.08206900 -0.01560000 -0.06641700
v -0.08189900 -0.01365000 -0.06447500
v -0.08206900 -0.01365000 -0.06641700
v -0.08393800 -0.01300000 -0.08778600
v -0.08391900 -0.01468200 -0.08756500
v -0.08386300 -0.01625000 -0.08691800
v -0.08377200 -0.01759600 -0.08588900
v -0.08365500 -0.01862900 -0.08454800
v -0.08351900 -0.01927900 -0.08298600
v -0.08337200 -0.01950000 -0.08131000
v -0.08312000 -0.01950000 -0.07843200
v -0.08286800 -0.01950000 -0.07555500
v -0.08261700 -0.01950000 -0.07267700
v -0.08236500 -0.01950000 -0.06979900
v -0.08211300 -0.01950000 -0.06692100
v -0.08186100 -0.01950000 -0.06404300
v -0.08160900 -0.01950000 -0.06116500
v -0.08135800 -0.01950000 -0.05828700
v -0.08110600 -0.01950000 -0.05540900
v -0.08095900 -0.01927900 -0.05373300
v -0.08082300 -0.01862900 -0.05217200
v -0.08070500 -0.01759600 -0.05083100
v -0.08061500 -0.01625000 -0.04980200
v -0.08055900 -0.01468200 -0.04915500
v -0.08053900 -0.01300000 -0.04893400
v -0.08053900 -0.01011100 -0.04893400
v -0.08053900 -0.00722200 -0.04893400
v -0.08053900 -0.00433300 -0.04893400
v -0.08053900 -0.00144400 -0.04893400
v -0.08053900 0.00144400 -0.04893400
v -0.08053900 0.00433300 -0.04893400
v -0.08053900 0.00722200 -0.04893400
v -0.08053900 0.01011100 -0.04893400
v -0.08053900 0.01300000 -0.04893400
v -0.08055900 0.01468200 -0.04915500
v -0.08061500 0.01625000 -0.04980200
v -0.08070500 0.01759600 -0.05083100
v -0.08082300 0.01862900 -0.05217200
v -0.08095900 0.01927900 -0.05373300
v -0.08110600 0.01950000 -0.05540900
v -0.08135800 0.01950000 -0.05828700
v -0.08160900 0.01950000 -0.06116500
v -0.08186100 0.01950000 -0.06404300
v -0.08211300 0.01950000 -0.06692100
v -0.08236500 0.01950000 -0.06979900
v -0.08261700 0.01950000 -0.07267700
v -0.08286800 0.01950000 -0.07555500
v -0.08312000 0.01950000 -0.07843200
v -0.08337200 0.01950000 -0.08131000
v -0.08351900 0.01927900 -0.08298600
v -0.08365500 0.01862900 -0.08454800
v -0.08377200 0.01759600 -0.08588900
v -0.08386300 0.01625000 -0.08691800
v -0.08391900 0.01468200 -0.08756500
v -0.08393800 0.01300000 -0.08778600
v -0.08393800 0.01011100 -0.08778600
v -0.08393800 0.00722200 -0.08778600
v -0.08393800 0.00433300 -0.08778600
v -0.08393800 0.00144400 -0.08778600
v -0.08393800 -0.00144400 -0.08778600
v -0.08393800 -0.00433300 -0.08778600
v -0.08393800 -0.00722200 -0.08778600
v -0.08393800 -0.01011100 -0.08778600
v -0.07994800 0.00500000 -0.06856000
v -0.08223900 0.01300000 -0.06836000
v -0.08223900 0.00500000 -0.06836000
v -0.08147500 0.00500000 -0.06842700
v -0.08071100 0.00500000 -0.06849300
v -0.07994800 0.01300000 -0.06856000
v -0.08071100 0.01300000 -0.06849300
v -0.08147500 0.01300000 -0.06842700
v -0.07987500 0.00508700 -0.06773200
v -0.07980600 0.00534600 -0.06694000
v -0.07974300 0.00576400 -0.06621800
v -0.07968900 0.00632300 -0.06559900
v -0.07964600 0.00700000 -0.06510900
v -0.07961600 0.00776400 -0.06477100
v -0.07960100 0.00858200 -0.06459700
v -0.07960100 0.00941800 -0.06459700
v -0.07961600 0.01023600 -0.06477100
v -0.07964600 0.01100000 -0.06510900
v -0.07968900 0.01167700 -0.06559900
v -0.07974300 0.01223600 -0.06621800
v -0.07980600 0.01265400 -0.06694000
v -0.07987500 0.01291300 -0.06773200
v -0.08216600 0.01291300 -0.06753100
v -0.08209700 0.01265400 -0.06673900
v -0.08203400 0.01223600 -0.06601800
v -0.08198000 0.01167700 -0.06539900
v -0.08193700 0.01100000 -0.06490900
v -0.08190700 0.01023600 -0.06457000
v -0.08189200 0.00941800 -0.06439700
v -0.08189200 0.00858200 -0.06439700
v -0.08190700 0.00776400 -0.06457000
v -0.08193700 0.00700000 -0.06490900
v -0.08198000 0.00632300 -0.06539900
v -0.08203400 0.00576400 -0.06601800
v -0.08209700 0.00534600 -0.06673900
v -0.08216600 0.00508700 -0.06753100
v -0.08102200 0.00508500 -0.06764500
v -0.08089600 0.00570200 -0.06620500
v -0.08084400 0.00620000 -0.06561500
v -0.08080200 0.00680200 -0.06513100
v -0.08077100 0.00748800 -0.06477100
v -0.08075100 0.00822900 -0.06455000
v -0.08074500 0.00900000 -0.06447500
v -0.08077300 0.01057700 -0.06479800
v -0.08075200 0.00981800 -0.06455900
v -0.08080600 0.01126300 -0.06517400
v -0.08084900 0.01185600 -0.06567000
v -0.08090200 0.01234200 -0.06627100
v -0.08096100 0.01270300 -0.06695300
v -0.08102600 0.01292500 -0.06769200
v -0.07994800 -0.01300000 -0.06856000
v -0.08223900 -0.00500000 -0.06836000
v -0.08223900 -0.01300000 -0.06836000
v -0.08147500 -0.01300000 -0.06842700
v -0.08071100 -0.01300000 -0.06849300
v -0.07994800 -0.00500000 -0.06856000
v -0.08071100 -0.00500000 -0.06849300
v -0.08147500 -0.00500000 -0.06842700
v -0.07987500 -0.01291300 -0.06773200
v -0.07980600 -0.01265400 -0.06694000
v -0.07974300 -0.01223600 -0.06621800
v -0.07968900 -0.01167700 -0.06559900
v -0.07964600 -0.01100000 -0.06510900
v -0.07961600 -0.01023600 -0.06477100
v -0.07960100 -0.00941800 -0.06459700
v -0.07960100 -0.00858200 -0.06459700
v -0.07961600 -0.00776400 -0.06477100
v -0.07964600 -0.00700000 -0.06510900
v -0.07968900 -0.00632300 -0.06559900
v -0.07974300 -0.00576400 -0.06621800
v -0.07980600 -0.00534600 -0.06694000
v -0.07987500 -0.00508700 -0.06773200
v -0.08216600 -0.00508700 -0.06753100
v -0.08209700 -0.00534600 -0.06673900
v -0.08203400 -0.00576400 -0.06601800
v -0.08198000 -0.00632300 -0.06539900
v -0.08193700 -0.00700000 -0.06490900
v -0.08190700 -0.00776400 -0.06457000
v -0.08189200 -0.00858200 -0.06439700
v -0.08189200 -0.00941800 -0.06439700
v -0.08190700 -0.01023600 -0.06457000
v -0.08193700 -0.01100000 -0.06490900
v -0.08198000 -0.01167700 -0.06539900
v -0.08203400 -0.01223600 -0.06601800
v -0.08209700 -0.01265400 -0.06673900
v -0.08216600 -0.01291300 -0.06753100
v -0.08102200 -0.01291500 -0.06764500
v -0.08089600 -0.01229800 -0.06620500
v -0.08084400 -0.01180000 -0.06561500
v -0.08080200 -0.01119800 -0.06513100
v -0.08077100 -0.01051200 -0.06477100
v -0.08075100 -0.00977100 -0.06455000
v -0.08074500 -0.00900000 -0.06447500
v -0.08077300 -0.00742300 -0.06479800
v -0.08075200 -0.00818200 -0.06455900
v -0.08080600 -0.00673700 -0.06517400
v -0.08084900 -0.00614400 -0.06567000
v -0.08090200 -0.00565800 -0.06627100
v -0.08096100 -0.00529700 -0.06695300
v -0.08102600 -0.00507500 -0.06769200
vn -0.99620000 -0.00000000 0.08720000
vn -0.99620000 0.00010000 0.08710000
vn -0.99620000 -0.00000000 0.08720000
vn -0.99620000 -0.00000000 0.08720000
vn -0.99620000 -0.00010000 0.08710000
vn -0.99620000 -0.00000000 0.08700000
vn -0.99620000 -0.00010000 0.08730000
vn -0.99620000 -0.00000000 0.08720000
vn -0.99620000 -0.00000000 0.08730000
vn -0.99620000 -0.00010000 0.08710000
vn -0.99620000 -0.00000000 0.08720000
vn -0.99620000 -0.00000000 0.08720000
vn -0.99620000 -0.00000000 0.08730000
vn -0.99620000 -0.00000000 0.08720000
vn -0.99620000 -0.00020000 0.08710000
vn -0.99620000 -0.00000000 0.08700000
vn -0.99620000 -0.00010000 0.08720000
vn -0.99620000 -0.00000000 0.08720000
vn -0.99620000 0.00010000 0.08720000
vn -0.99620000 0.00020000 0.08710000
vn -0.99620000 -0.00020000 0.08730000
vn -0.99620000 -0.00000000 0.08710000
vn -0.99620000 -0.00000000 0.08720000
vn -0.99620000 -0.00000000 0.08720000
vn -0.99620000 -0.00000000 0.08720000
vn -0.99620000 0.00010000 0.08690000
vn -0.99620000 -0.00010000 0.08690000
vn -0.99620000 -0.00000000 0.08720000
vn -0.99620000 -0.00000000 0.08720000
vn -0.99620000 -0.00000000 0.08720000
vn -0.99620000 0.00010000 0.08730000
vn -0.99620000 -0.00000000 0.08720000
vn -0.99620000 -0.00000000 0.08740000
vn -0.99620000 0.00020000 0.08730000
vn -0.00000000 -1.00000000 -0.00000000
vn -0.00000000 1.00000000 -0.00000000
vn 0.00020000 1.00000000 -0.00000000
vn -0.00000000 1.00000000 -0.00000000
vn -0.00000000 1.00000000 0.00010000
vn -0.00000000 -1.00000000 -0.00000000
vn -0.00000000 -1.00000000 0.00010000
vn -0.00000000 -1.00000000 -0.00000000
vn 0.02700000 -0.95100000 0.30790000
vn 0.05120000 -0.80890000 0.58570000
vn 0.07070000 -0.58780000 0.80590000
vn 0.08310000 -0.30900000 0.94740000
vn 0.08730000 -0.00000000 0.99620000
vn 0.08310000 0.30900000 0.94740000
vn 0.07040000 0.58790000 0.80590000
vn 0.05120000 0.80890000 0.58570000
vn 0.02700000 0.95100000 0.30790000
vn 0.02680000 0.95110000 0.30760000
vn 0.05120000 0.80910000 0.58550000
vn 0.07040000 0.58790000 0.80590000
vn 0.08310000 0.30900000 0.94740000
vn 0.08750000 -0.00000000 0.99620000
vn 0.08270000 -0.30900000 0.94750000
vn 0.07040000 -0.58790000 0.80590000
vn 0.05130000 -0.80880000 0.58590000
vn 0.02690000 -0.95100000 0.30790000
vn -0.99620000 -0.00000000 0.08720000
vn -0.99620000 -0.00010000 0.08710000
vn -0.99620000 -0.00000000 0.08730000
vn -0.99620000 -0.00000000 0.08720000
vn -0.99620000 0.00010000 0.08710000
vn -0.99620000 -0.00000000 0.08700000
vn -0.99620000 -0.00010000 0.08710000
vn -0.99620000 -0.00000000 0.08720000
vn -0.99620000 -0.00000000 0.08730000
vn -0.99620000 0.00010000 0.08710000
vn -0.99620000 -0.00000000 0.08720000
vn -0.99620000 -0.00000000 0.08720000
vn -0.99620000 -0.00000000 0.08720000
vn -0.99620000 -0.00000000 0.08730000
vn -0.99620000 0.00020000 0.08710000
vn -0.99620000 -0.00000000 0.08700000
vn -0.99620000 0.00010000 0.08720000
vn -0.99620000 -0.00000000 0.08720000
vn -0.99620000 -0.00010000 0.08720000
vn -0.99620000 -0.00020000 0.08710000
vn -0.99620000 0.00020000 0.08730000
vn -0.99620000 -0.00000000 0.08710000
vn -0.99620000 -0.00000000 0.08720000
vn -0.99620000 -0.00000000 0.08720000
vn -0.99620000 -0.00000000 0.08720000
vn -0.99620000 -0.00000000 0.08720000
vn -0.99620000 0.00010000 0.08690000
vn -0.99620000 -0.00000000 0.08720000
vn -0.99620000 0.00010000 0.08690000
vn -0.99620000 0.00010000 0.08720000
vn -0.99620000 -0.00010000 0.08730000
vn -0.99620000 -0.00000000 0.08720000
vn -0.99620000 -0.00000000 0.08740000
vn -0.99620000 -0.00020000 0.08730000
vn -0.00000000 -1.00000000 -0.00000000
vn -0.00000000 1.00000000 -0.00000000
vn 0.00020000 1.00000000 -0.00000000
vn -0.00000000 1.00000000 -0.00000000
vn -0.00000000 1.00000000 0.00010000
vn -0.00000000 -1.00000000 -0.00000000
vn -0.00000000 -1.00000000 0.00010000
vn -0.00000000 -1.00000000 -0.00000000
vn 0.02700000 -0.95100000 0.30790000
vn 0.05120000 -0.80910000 0.58540000
vn 0.07070000 -0.58780000 0.80590000
vn 0.08310000 -0.30900000 0.94740000
vn 0.08730000 -0.00000000 0.99620000
vn 0.08310000 0.30900000 0.94740000
vn 0.07040000 0.58790000 0.80590000
vn 0.05130000 0.80880000 0.58580000
vn 0.02680000 0.95110000 0.30760000
vn 0.02690000 0.95100000 0.30790000
vn 0.05130000 0.80880000 0.58590000
vn 0.07040000 0.58790000 0.80590000
vn 0.08270000 0.30900000 0.94750000
vn 0.08750000 -0.00000000 0.99620000
vn 0.08310000 -0.30900000 0.94740000
vn 0.07040000 -0.58790000 0.80590000
vn 0.05120000 -0.80910000 0.58550000
vn 0.02690000 -0.95100000 0.30790000
vn -0.99620000 0.00010000 0.08710000
vn -0.99620000 -0.00000000 0.08720000
vn -0.99620000 0.00010000 0.08720000
vn -0.99620000 -0.00000000 0.08720000
vn -0.99620000 -0.00000000 0.08720000
vn -0.99620000 -0.00000000 0.08720000
vn -0.99620000 -0.00000000 0.08710000
vn -0.99620000 -0.00000000 0.08720000
vn -0.99620000 -0.00000000 0.08710000
vn -0.99620000 -0.00000000 0.08710000
vn -0.99620000 -0.00000000 0.08720000
vn -0.99620000 -0.00000000 0.08720000
vn -0.99620000 -0.00020000 0.08720000
vn -0.99620000 -0.00010000 0.08730000
vn -0.99620000 -0.00000000 0.08720000
vn -0.99620000 -0.00000000 0.08720000
vn -0.99620000 -0.00000000 0.08720000
vn -0.99620000 -0.00000000 0.08700000
vn -0.99620000 -0.00000000 0.08720000
vn -0.99620000 -0.00000000 0.08720000
vn -0.99620000 -0.00000000 0.08720000
vn -0.99620000 -0.00000000 0.08720000
vn -0.99620000 -0.00000000 0.08720000
vn -0.99620000 -0.00000000 0.08700000
vn -0.99620000 -0.00000000 0.08720000
vn -0.99620000 -0.00000000 0.08720000
vn -0.99620000 -0.00000000 0.08720000
vn -0.99620000 -0.00000000 0.08730000
vn -0.99620000 -0.00000000 0.08720000
vn -0.99620000 -0.00000000 0.08720000
vn -0.99620000 -0.00000000 0.08720000
vn -0.99620000 -0.00000000 0.08720000
vn -0.99620000 -0.00000000 0.08700000
vn -0.99620000 -0.00000000 0.08720000
vn -0.99620000 -0.00000000 0.08720000
vn -0.99620000 -0.00000000 0.08720000
vn -0.99620000 -0.00000000 0.08720000
vn -0.99620000 -0.00000000 0.08720000
vn -0.99620000 -0.00000000 0.08720000
vn -0.99620000 -0.00000000 0.08720000
vn -0.99620000 -0.00000000 0.08720000
vn -0.99620000 -0.00000000 0.08700000
vn -0.99620000 -0.00000000 0.08720000
vn -0.99620000 -0.00000000 0.08720000
vn -0.99620000 -0.00000000 0.08720000
vn -0.99620000 -0.00000000 0.08730000
vn -0.99620000 -0.00000000 0.08720000
vn -0.99620000 -0.00000000 0.08720000
vn -0.99620000 -0.00000000 0.08720000
vn -0.99620000 -0.00000000 0.08720000
vn -0.99620000 -0.00000000 0.08700000
vn -0.99620000 -0.00000000 0.08720000
vn -0.99620000 -0.00000000 0.08720000
vn -0.99620000 -0.00000000 0.08720000
vn -0.99620000 -0.00000000 0.08720000
vn -0.99620000 -0.00000000 0.08720000
vn -0.99620000 -0.00000000 0.08710000
vn -0.99620000 -0.00000000 0.08720000
vn -0.99620000 -0.00000000 0.08720000
vn -0.99620000 0.00020000 0.08720000
vn -0.99620000 0.00010000 0.08730000
vn -0.99620000 -0.00000000 0.08720000
vn -0.99620000 -0.00000000 0.08720000
vn -0.99620000 -0.00000000 0.08720000
vn -0.99620000 -0.00010000 0.08710000
vn -0.99620000 -0.00000000 0.08720000
vn -0.99620000 -0.00010000 0.08720000
vn -0.99620000 -0.00000000 0.08720000
vn -0.99620000 -0.00000000 0.08720000
vn -0.99620000 -0.00000000 0.08720000
vn -0.99620000 -0.00000000 0.08710000
vn -0.99620000 -0.00000000 0.08720000
vn -0.99620000 -0.00000000 0.08710000
vn -0.99620000 -0.00000000 0.08710000
vn -0.99620000 -0.00020000 0.08710000
vn -0.99620000 -0.00000000 0.08710000
vn -0.99620000 -0.00000000 0.08720000
vn -0.99620000 0.00020000 0.08740000
vn -0.99620000 -0.00000000 0.08720000
vn -0.99620000 -0.00000000 0.08720000
vn -0.99620000 -0.00020000 0.08720000
vn -0.99620000 -0.00000000 0.08710000
vn -0.99620000 0.00010000 0.08710000
vn -0.99620000 -0.00000000 0.08720000
vn -0.99620000 -0.00000000 0.08720000
vn -0.99620000 -0.00000000 0.08730000
vn -0.99620000 -0.00000000 0.08720000
vn -0.99620000 -0.00000000 0.08710000
vn -0.99620000 0.00010000 0.08720000
vn -0.99620000 -0.00010000 0.08730000
vn -0.99620000 -0.00000000 0.08720000
vn -0.99620000 -0.00000000 0.08740000
vn -0.99620000 -0.00000000 0.08720000
vn -0.99620000 -0.00000000 0.08710000
vn -0.99620000 -0.00010000 0.08710000
vn -0.99620000 -0.00000000 0.08740000
vn -0.99620000 0.00020000 0.08720000
vn -0.99620000 0.00010000 0.08730000
vn -0.99620000 -0.00000000 0.08720000
vn -0.99620000 -0.00000000 0.08720000
vn -0.99620000 -0.00000000 0.08720000
vn -0.99620000 -0.00000000 0.08710000
vn -0.99620000 0.00020000 0.08710000
vn -0.99620000 -0.00000000 0.08720000
vn -0.99620000 -0.00000000 0.08720000
vn -0.99620000 0.00010000 0.08730000
vn -0.99620000 -0.00010000 0.08720000
vn -0.99620000 -0.00000000 0.08720000
vn -0.99620000 -0.00000000 0.08740000
vn -0.99620000 -0.00000000 0.08730000
vn -0.99620000 -0.00000000 0.08720000
vn -0.99620000 -0.00000000 0.08720000
vn -0.99620000 -0.00000000 0.08710000
vn -0.99620000 0.00010000 0.08720000
vn -0.99620000 -0.00000000 0.08720000
vn -0.99620000 -0.00000000 0.08710000
vn -0.99620000 -0.00000000 0.08720000
vn -0.99620000 -0.00020000 0.08750000
vn -0.99620000 -0.00000000 0.08710000
vn -0.99620000 0.00010000 0.08710000
vn -0.99620000 -0.00010000 0.08700000
vn -0.99620000 -0.00000000 0.08720000
vn -0.99620000 0.00010000 0.08720000
vn -0.99620000 -0.00000000 0.08730000
vn -0.99620000 -0.00000000 0.08710000
vn -0.99620000 -0.00000000 0.08720000
vn -0.99620000 -0.00020000 0.08720000
vn -0.99620000 -0.00000000 0.08720000
vn -0.99620000 -0.00000000 0.08720000
vn -0.99620000 -0.00010000 0.08710000
vn -0.99620000 -0.00000000 0.08710000
vn -0.99620000 -0.00000000 0.08720000
vn -0.99620000 -0.00000000 0.08710000
vn -0.99620000 -0.00000000 0.08710000
vn -0.99620000 0.00010000 0.08710000
vn -0.99620000 -0.00020000 0.08720000
vn -0.99620000 -0.00010000 0.08690000
vn -0.99620000 -0.00000000 0.08710000
vn -0.99620000 -0.00000000 0.08730000
vn -0.99620000 -0.00010000 0.08720000
vn -0.99620000 0.00010000 0.08730000
vn -0.99620000 0.00010000 0.08700000
vn -0.99620000 -0.00010000 0.08710000
vn -0.99620000 -0.00000000 0.08710000
vn -0.99620000 0.00020000 0.08750000
vn -0.99620000 -0.00000000 0.08720000
vn -0.99620000 -0.00000000 0.08710000
vn -0.99620000 -0.00000000 0.08720000
vn -0.99620000 -0.00010000 0.08720000
vn -0.99620000 -0.00010000 0.08710000
vn -0.99620000 -0.00000000 0.08710000
vn -0.99620000 -0.00000000 0.08720000
vn -0.99620000 -0.00000000 0.08710000
vn -0.99620000 -0.00000000 0.08710000
vn -0.99620000 -0.00000000 0.08720000
vn -0.99620000 -0.00000000 0.08720000
vn -0.99620000 0.00010000 0.08710000
vn -0.99620000 -0.00000000 0.08720000
vn -0.99620000 -0.00000000 0.08720000
vn -0.99620000 -0.00000000 0.08710000
vn -0.99620000 -0.00040000 0.08700000
vn -0.99620000 -0.00000000 0.08710000
vn -0.99620000 0.00010000 0.08730000
vn -0.99620000 -0.00010000 0.08730000
vn -0.99620000 -0.00010000 0.08720000
vn -0.99620000 -0.00010000 0.08710000
vn -0.99620000 -0.00000000 0.08710000
vn -0.99620000 -0.00000000 0.08720000
vn -0.99620000 -0.00000000 0.08720000
vn -0.99620000 -0.00010000 0.08720000
vn -0.99620000 -0.00000000 0.08710000
vn -0.99620000 0.00010000 0.08710000
vn -0.99620000 0.00010000 0.08730000
vn -0.99620000 0.00010000 0.08710000
vn -0.99620000 0.00020000 0.08700000
vn -0.99620000 0.00010000 0.08730000
vn -0.99620000 -0.00020000 0.08710000
vn -0.99620000 -0.00000000 0.08710000
vn -0.99620000 0.00020000 0.08730000
vn -0.99620000 -0.00000000 0.08720000
vn -0.99620000 -0.00000000 0.08720000
vn -0.99620000 -0.00000000 0.08720000
vn -0.99620000 -0.00000000 0.08720000
vn -0.99620000 -0.00000000 0.08720000
vn -0.99620000 -0.00000000 0.08720000
vn -0.99620000 -0.00000000 0.08720000
vn -0.99620000 -0.00000000 0.08720000
vn -0.99620000 -0.00020000 0.08730000
vn -0.99620000 -0.00000000 0.08710000
vn -0.99620000 0.00020000 0.08710000
vn -0.99620000 -0.00010000 0.08730000
vn -0.99620000 -0.00020000 0.08700000
vn -0.99620000 -0.00010000 0.08710000
vn -0.99620000 -0.00010000 0.08730000
vn -0.99620000 -0.00010000 0.08710000
vn -0.99620000 -0.00000000 0.08710000
vn -0.99620000 0.00010000 0.08720000
vn -0.99620000 -0.00000000 0.08720000
vn -0.99620000 -0.00000000 0.08720000
vn -0.99620000 -0.00000000 0.08710000
vn -0.99620000 0.00010000 0.08710000
vn -0.99620000 0.00010000 0.08720000
vn -0.99620000 0.00010000 0.08730000
vn -0.99620000 -0.00010000 0.08730000
vn -0.99620000 -0.00000000 0.08730000
vn -0.99620000 0.00040000 0.08700000
vn -0.99620000 -0.00000000 0.08710000
vn -0.99620000 -0.00000000 0.08720000
vn -0.99620000 -0.00000000 0.08720000
vn -0.99620000 -0.00000000 0.08690000
vn -0.99620000 -0.00000000 0.08690000
vn -0.99620000 -0.00000000 0.08690000
vn -0.99620000 -0.00000000 0.08690000
vn -0.99620000 -0.00000000 0.08690000
vn -0.99620000 -0.00000000 0.08690000
vn -0.99620000 -0.00000000 0.08690000
vn -0.99620000 -0.00000000 0.08690000
vn -0.00000000 1.00000000 -0.00000000
vn -0.00000000 -1.00000000 -0.00000000
vn -0.00000000 1.00000000 -0.00000000
vn -0.00000000 1.00000000 -0.00000000
vn -0.00000000 1.00000000 -0.00000000
vn -0.00000000 -1.00000000 -0.00000000
vn -0.00000000 -1.00000000 -0.00000000
vn -0.00000000 -1.00000000 -0.00000000
vn -0.01800000 0.97810000 -0.20730000
vn -0.03540000 0.91350000 -0.40520000
vn -0.05120000 0.80900000 -0.58550000
vn -0.06480000 0.66910000 -0.74030000
vn -0.07550000 0.50000000 -0.86270000
vn -0.08290000 0.30900000 -0.94740000
vn -0.08670000 0.10460000 -0.99070000
vn -0.08670000 -0.10450000 -0.99070000
vn -0.08290000 -0.30900000 -0.94740000
vn -0.07550000 -0.50000000 -0.86270000
vn -0.06480000 -0.66910000 -0.74030000
vn -0.05120000 -0.80900000 -0.58560000
vn -0.03550000 -0.91350000 -0.40520000
vn -0.01810000 -0.97820000 -0.20710000
vn -0.01810000 -0.97820000 -0.20710000
vn -0.03540000 -0.91360000 -0.40520000
vn -0.05120000 -0.80900000 -0.58560000
vn -0.06480000 -0.66910000 -0.74030000
vn -0.07550000 -0.50000000 -0.86270000
vn -0.08290000 -0.30900000 -0.94740000
vn -0.08670000 -0.10450000 -0.99070000
vn -0.08670000 0.10450000 -0.99070000
vn -0.08290000 0.30900000 -0.94740000
vn -0.07550000 0.50000000 -0.86270000
vn -0.06480000 0.66910000 -0.74030000
vn -0.05120000 0.80900000 -0.58550000
vn -0.03550000 0.91350000 -0.40520000
vn -0.01810000 0.97820000 -0.20710000
vn -0.01780000 0.97890000 -0.20370000
vn -0.04930000 0.82460000 -0.56360000
vn -0.06220000 0.70010000 -0.71130000
vn -0.07280000 0.54940000 -0.83240000
vn -0.08070000 0.37810000 -0.92220000
vn -0.08550000 0.19270000 -0.97750000
vn -0.08710000 -0.00000000 -0.99620000
vn -0.08010000 -0.39430000 -0.91550000
vn -0.08530000 -0.20450000 -0.97510000
vn -0.07190000 -0.56580000 -0.82140000
vn -0.06100000 -0.71400000 -0.69740000
vn -0.04790000 -0.83560000 -0.54730000
vn -0.03300000 -0.92580000 -0.37670000
vn -0.01680000 -0.98130000 -0.19200000
vn -0.00000000 1.00000000 -0.00000000
vn -0.00000000 -1.00000000 -0.00000000
vn -0.00000000 1.00000000 -0.00000000
vn -0.00000000 1.00000000 -0.00000000
vn -0.00000000 1.00000000 -0.00000000
vn -0.00000000 -1.00000000 -0.00000000
vn -0.00000000 -1.00000000 -0.00000000
vn -0.00000000 -1.00000000 -0.00000000
vn -0.01810000 0.97810000 -0.20720000
vn -0.03540000 0.91350000 -0.40520000
vn -0.05120000 0.80900000 -0.58550000
vn -0.06480000 0.66910000 -0.74030000
vn -0.07550000 0.50000000 -0.86270000
vn -0.08290000 0.30900000 -0.94740000
vn -0.08670000 0.10460000 -0.99070000
vn -0.08670000 -0.10450000 -0.99070000
vn -0.08290000 -0.30900000 -0.94740000
vn -0.07550000 -0.50000000 -0.86270000
vn -0.06480000 -0.66910000 -0.74030000
vn -0.05120000 -0.80900000 -0.58560000
vn -0.03550000 -0.91350000 -0.40520000
vn -0.01810000 -0.97820000 -0.20710000
vn -0.01810000 -0.97820000 -0.20710000
vn -0.03540000 -0.91350000 -0.40520000
vn -0.05120000 -0.80900000 -0.58560000
vn -0.06480000 -0.66910000 -0.74030000
vn -0.07550000 -0.50000000 -0.86270000
vn -0.08290000 -0.30900000 -0.94740000
vn -0.08670000 -0.10450000 -0.99070000
vn -0.08670000 0.10450000 -0.99070000
vn -0.08290000 0.30900000 -0.94740000
vn -0.07550000 0.50000000 -0.86270000
vn -0.06480000 0.66910000 -0.74030000
vn -0.05120000 0.80900000 -0.58550000
vn -0.03550000 0.91350000 -0.40520000
vn -0.01810000 0.97820000 -0.20710000
vn -0.01780000 0.97890000 -0.20370000
vn -0.04930000 0.82460000 -0.56360000
vn -0.06220000 0.70010000 -0.71130000
vn -0.07280000 0.54940000 -0.83240000
vn -0.08070000 0.37810000 -0.92220000
vn -0.08550000 0.19270000 -0.97750000
vn -0.08710000 -0.00000000 -0.99620000
vn -0.08010000 -0.39430000 -0.91550000
vn -0.08530000 -0.20450000 -0.97510000
vn -0.07190000 -0.56580000 -0.82140000
vn -0.06100000 -0.71400000 -0.69740000
vn -0.04790000 -0.83560000 -0.54730000
vn -0.03300000 -0.92580000 -0.37670000
vn -0.01680000 -0.98130000 -0.19200000
vt 0.27340400 0.00000000
vt 0.29904900 0.00402600
vt 0.32218300 0.01570900
vt 0.34054300 0.03390700
vt 0.35233000 0.05683700
vt 0.35639200 0.08225500
vt 0.35233000 0.10767300
vt 0.34054300 0.13060300
vt 0.32218300 0.14880100
vt 0.29904900 0.16048400
vt 0.27340400 0.16451000
vt 0.27340400 0.08225500
vt 0.23191100 0.08225500
vt 0.27340400 0.04112800
vt 0.23191100 0.04112800
vt 0.31489800 0.08225500
vt 0.31489800 0.04112800
vt 0.27340400 0.12338300
vt 0.31489800 0.12338300
vt 0.23191100 0.12338300
vt 0.25615000 0.16271300
vt 0.23965000 0.15739900
vt 0.22462500 0.14880100
vt 0.21173300 0.13729500
vt 0.20153500 0.12338300
vt 0.19447800 0.10767300
vt 0.19087100 0.09085300
vt 0.19087100 0.07365700
vt 0.19447800 0.05683700
vt 0.20153500 0.04112800
vt 0.21173300 0.02721600
vt 0.22462500 0.01570900
vt 0.23965000 0.00711100
vt 0.25615000 0.00179700
vt 0.18940700 0.00000000
vt 0.14315400 0.26071900
vt 0.18940700 0.26071900
vt 0.17398900 0.26071900
vt 0.15857100 0.26071900
vt 0.14315400 0.00000000
vt 0.15857100 0.00000000
vt 0.17398900 0.00000000
vt 0.18940700 0.02607200
vt 0.18940700 0.05214400
vt 0.18940700 0.07821600
vt 0.18940700 0.10428800
vt 0.18940700 0.13036000
vt 0.18940700 0.15643200
vt 0.18940700 0.18250400
vt 0.18940700 0.20857500
vt 0.18940700 0.23464700
vt 0.14315400 0.23464700
vt 0.14315400 0.20857500
vt 0.14315400 0.18250400
vt 0.14315400 0.15643200
vt 0.14315400 0.13036000
vt 0.14315400 0.10428800
vt 0.14315400 0.07821600
vt 0.14315400 0.05214400
vt 0.14315400 0.02607200
vt 0.67796900 0.00000000
vt 0.70361300 0.00402600
vt 0.72674800 0.01570900
vt 0.74510700 0.03390700
vt 0.75689400 0.05683700
vt 0.76095600 0.08225500
vt 0.75689400 0.10767300
vt 0.74510700 0.13060300
vt 0.72674800 0.14880100
vt 0.70361300 0.16048400
vt 0.67796900 0.16451000
vt 0.67796900 0.08225500
vt 0.67796900 0.04112800
vt 0.63647500 0.08225500
vt 0.63647500 0.04112800
vt 0.71946200 0.08225500
vt 0.71946200 0.04112800
vt 0.67796900 0.12338300
vt 0.71946200 0.12338300
vt 0.63647500 0.12338300
vt 0.66071500 0.16271300
vt 0.64421500 0.15739900
vt 0.62919000 0.14880100
vt 0.61629700 0.13729500
vt 0.60609900 0.12338300
vt 0.59904300 0.10767300
vt 0.59543600 0.09085300
vt 0.59543600 0.07365700
vt 0.59904300 0.05683700
vt 0.60609900 0.04112800
vt 0.61629700 0.02721600
vt 0.62919000 0.01570900
vt 0.64421500 0.00711100
vt 0.66071500 0.00179700
vt 0.04625300 0.00000000
vt 0.00000000 0.26071900
vt 0.04625300 0.26071900
vt 0.03083500 0.26071900
vt 0.01541800 0.26071900
vt 0.00000000 0.00000000
vt 0.01541800 0.00000000
vt 0.03083500 0.00000000
vt 0.04625300 0.02607200
vt 0.04625300 0.05214400
vt 0.04625300 0.07821600
vt 0.04625300 0.10428800
vt 0.04625300 0.13036000
vt 0.04625300 0.15643200
vt 0.04625300 0.18250400
vt 0.04625300 0.20857500
vt 0.04625300 0.23464700
vt 0.00000000 0.23464700
vt 0.00000000 0.20857500
vt 0.00000000 0.18250400
vt 0.00000000 0.15643200
vt 0.00000000 0.13036000
vt 0.00000000 0.10428800
vt 0.00000000 0.07821600
vt 0.00000000 0.05214400
vt 0.00000000 0.02607200
vt 0.91776900 0.24674100
vt 0.83700200 0.24674100
vt 0.75623600 0.24674100
vt 0.67547000 0.24674100
vt 0.59470300 0.24674100
vt 0.51393700 0.24674100
vt 0.43317100 0.24674100
vt 0.35240400 0.24674100
vt 0.27163800 0.24674100
vt 0.91776900 0.32750800
vt 0.83700200 0.32750800
vt 0.75623600 0.32750800
vt 0.67547000 0.32750800
vt 0.51393700 0.32750800
vt 0.43317100 0.32750800
vt 0.35240400 0.32750800
vt 0.27163800 0.32750800
vt 0.91776900 0.40827400
vt 0.83700200 0.40827400
vt 0.75623600 0.40827400
vt 0.43317100 0.40827400
vt 0.35240400 0.40827400
vt 0.27163800 0.40827400
vt 0.91776900 0.48904100
vt 0.83700200 0.48904100
vt 0.75623600 0.48904100
vt 0.67547000 0.48904100
vt 0.59470300 0.48904100
vt 0.51393700 0.48904100
vt 0.43317100 0.48904100
vt 0.35240400 0.48904100
vt 0.27163800 0.48904100
vt 0.91776900 0.56980700
vt 0.83700200 0.56980700
vt 0.75623600 0.56980700
vt 0.67547000 0.56980700
vt 0.59470300 0.56980700
vt 0.51393700 0.56980700
vt 0.43317100 0.56980700
vt 0.35240400 0.56980700
vt 0.27163800 0.56980700
vt 0.91776900 0.65057300
vt 0.83700200 0.65057300
vt 0.75623600 0.65057300
vt 0.67547000 0.65057300
vt 0.59470300 0.65057300
vt 0.51393700 0.65057300
vt 0.43317100 0.65057300
vt 0.35240400 0.65057300
vt 0.27163800 0.65057300
vt 0.91776900 0.73134000
vt 0.83700200 0.73134000
vt 0.75623600 0.73134000
vt 0.43317100 0.73134000
vt 0.35240400 0.73134000
vt 0.27163800 0.73134000
vt 0.91776900 0.81210600
vt 0.83700200 0.81210600
vt 0.75623600 0.81210600
vt 0.67547000 0.81210600
vt 0.51393700 0.81210600
vt 0.43317100 0.81210600
vt 0.35240400 0.81210600
vt 0.27163800 0.81210600
vt 0.91776900 0.89287300
vt 0.83700200 0.89287300
vt 0.75623600 0.89287300
vt 0.67547000 0.89287300
vt 0.59470300 0.89287300
vt 0.51393700 0.89287300
vt 0.43317100 0.89287300
vt 0.35240400 0.89287300
vt 0.27163800 0.89287300
vt 0.59470300 0.83902800
vt 0.62030100 0.83497400
vt 0.64339400 0.82320800
vt 0.66172000 0.80488200
vt 0.67348600 0.78178900
vt 0.67754100 0.75619100
vt 0.67348600 0.73059300
vt 0.66172000 0.70750000
vt 0.64339400 0.68917400
vt 0.62030100 0.67740800
vt 0.59470300 0.67335400
vt 0.63508600 0.89287300
vt 0.59470300 0.85248900
vt 0.67547000 0.85248900
vt 0.63508600 0.85248900
vt 0.71585300 0.81210600
vt 0.71585300 0.73134000
vt 0.75623600 0.77172300
vt 0.71585300 0.77172300
vt 0.63508600 0.65057300
vt 0.59470300 0.46626000
vt 0.62030100 0.46220600
vt 0.64339400 0.45044000
vt 0.66172000 0.43211400
vt 0.67348600 0.40902100
vt 0.67754100 0.38342300
vt 0.67348600 0.35782500
vt 0.66172000 0.33473300
vt 0.64339400 0.31640600
vt 0.62030100 0.30464000
vt 0.59470300 0.30058600
vt 0.63508600 0.48904100
vt 0.71585300 0.40827400
vt 0.71585300 0.32750800
vt 0.75623600 0.36789100
vt 0.71585300 0.36789100
vt 0.59470300 0.28712500
vt 0.63508600 0.24674100
vt 0.67547000 0.28712500
vt 0.63508600 0.28712500
vt 0.57748000 0.30239600
vt 0.56101000 0.30774700
vt 0.54601300 0.31640600
vt 0.53314300 0.32799400
vt 0.52296400 0.34200400
vt 0.51592000 0.35782500
vt 0.51232000 0.37476400
vt 0.51232000 0.39208200
vt 0.51592000 0.40902100
vt 0.52296400 0.42484200
vt 0.53314300 0.43885200
vt 0.54601300 0.45044000
vt 0.56101000 0.45909900
vt 0.57748000 0.46445000
vt 0.51393700 0.28712500
vt 0.55432000 0.24674100
vt 0.55432000 0.28712500
vt 0.47355400 0.40827400
vt 0.43317100 0.36789100
vt 0.47355400 0.32750800
vt 0.47355400 0.36789100
vt 0.55432000 0.48904100
vt 0.57748000 0.67516400
vt 0.56101000 0.68051500
vt 0.54601300 0.68917400
vt 0.53314300 0.70076200
vt 0.52296400 0.71477200
vt 0.51592000 0.73059300
vt 0.51232000 0.74753200
vt 0.51232000 0.76485000
vt 0.51592000 0.78178900
vt 0.52296400 0.79761000
vt 0.53314300 0.81162000
vt 0.54601300 0.82320800
vt 0.56101000 0.83186700
vt 0.57748000 0.83721800
vt 0.55432000 0.65057300
vt 0.47355400 0.81210600
vt 0.43317100 0.77172300
vt 0.47355400 0.73134000
vt 0.47355400 0.77172300
vt 0.55432000 0.89287300
vt 0.51393700 0.85248900
vt 0.55432000 0.85248900
vt 0.99853500 0.83902800
vt 0.99394800 0.87386800
vt 0.98050100 0.90633400
vt 0.95910900 0.93421200
vt 0.93123000 0.95560400
vt 0.89876400 0.96905200
vt 0.86392500 0.97363900
vt 0.80409800 0.97363900
vt 0.74427100 0.97363900
vt 0.68444400 0.97363900
vt 0.62461700 0.97363900
vt 0.56479000 0.97363900
vt 0.50496300 0.97363900
vt 0.44513600 0.97363900
vt 0.38530900 0.97363900
vt 0.32548200 0.97363900
vt 0.29064200 0.96905200
vt 0.25817700 0.95560400
vt 0.23029800 0.93421200
vt 0.20890600 0.90633400
vt 0.19545800 0.87386800
vt 0.19087100 0.83902800
vt 0.19087100 0.77920100
vt 0.19087100 0.71937400
vt 0.19087100 0.65954700
vt 0.19087100 0.59972000
vt 0.19087100 0.53989400
vt 0.19087100 0.48006700
vt 0.19087100 0.42024000
vt 0.19087100 0.36041300
vt 0.19087100 0.30058600
vt 0.19545800 0.26574600
vt 0.20890600 0.23328000
vt 0.23029800 0.20540200
vt 0.25817700 0.18401000
vt 0.29064200 0.17056200
vt 0.32548200 0.16597500
vt 0.38530900 0.16597500
vt 0.44513600 0.16597500
vt 0.50496300 0.16597500
vt 0.56479000 0.16597500
vt 0.62461700 0.16597500
vt 0.68444400 0.16597500
vt 0.74427100 0.16597500
vt 0.80409800 0.16597500
vt 0.86392500 0.16597500
vt 0.89876400 0.17056200
vt 0.93123000 0.18401000
vt 0.95910900 0.20540200
vt 0.98050100 0.23328000
vt 0.99394800 0.26574600
vt 0.99853500 0.30058600
vt 0.99853500 0.36041300
vt 0.99853500 0.42024000
vt 0.99853500 0.48006700
vt 0.99853500 0.53989400
vt 0.99853500 0.59972000
vt 0.99853500 0.65954700
vt 0.99853500 0.71937400
vt 0.99853500 0.77920100
vt 0.14168900 0.00000000
vt 0.09543600 0.26071900
vt 0.09543600 0.00000000
vt 0.11085300 0.00000000
vt 0.12627100 0.00000000
vt 0.14168900 0.26071900
vt 0.12627100 0.26071900
vt 0.11085300 0.26071900
vt 0.14168900 0.01738100
vt 0.14168900 0.03476300
vt 0.14168900 0.05214400
vt 0.14168900 0.06952500
vt 0.14168900 0.08690600
vt 0.14168900 0.10428800
vt 0.14168900 0.12166900
vt 0.14168900 0.13905000
vt 0.14168900 0.15643200
vt 0.14168900 0.17381300
vt 0.14168900 0.19119400
vt 0.14168900 0.20857500
vt 0.14168900 0.22595700
vt 0.14168900 0.24333800
vt 0.09543600 0.24333800
vt 0.09543600 0.22595700
vt 0.09543600 0.20857500
vt 0.09543600 0.19119400
vt 0.09543600 0.17381300
vt 0.09543600 0.15643200
vt 0.09543600 0.13905000
vt 0.09543600 0.12166900
vt 0.09543600 0.10428800
vt 0.09543600 0.08690600
vt 0.09543600 0.06952500
vt 0.09543600 0.05214400
vt 0.09543600 0.03476300
vt 0.09543600 0.01738100
vt 0.11856200 0.01709200
vt 0.11856200 0.04990900
vt 0.11856200 0.06599900
vt 0.11856200 0.08208900
vt 0.11856200 0.09817900
vt 0.11856200 0.11427000
vt 0.11856200 0.13036000
vt 0.11856200 0.16399400
vt 0.11856200 0.14745100
vt 0.11856200 0.18026900
vt 0.11856200 0.19635900
vt 0.11856200 0.21244900
vt 0.11856200 0.22853900
vt 0.11856200 0.24462900
vt 0.09397100 0.00000000
vt 0.04771800 0.26071900
vt 0.04771800 0.00000000
vt 0.06313600 0.00000000
vt 0.07855300 0.00000000
vt 0.09397100 0.26071900
vt 0.07855300 0.26071900
vt 0.06313600 0.26071900
vt 0.09397100 0.01738100
vt 0.09397100 0.03476300
vt 0.09397100 0.05214400
vt 0.09397100 0.06952500
vt 0.09397100 0.08690600
vt 0.09397100 0.10428800
vt 0.09397100 0.12166900
vt 0.09397100 0.13905000
vt 0.09397100 0.15643200
vt 0.09397100 0.17381300
vt 0.09397100 0.19119400
vt 0.09397100 0.20857500
vt 0.09397100 0.22595700
vt 0.09397100 0.24333800
vt 0.04771800 0.24333800
vt 0.04771800 0.22595700
vt 0.04771800 0.20857500
vt 0.04771800 0.19119400
vt 0.04771800 0.17381300
vt 0.04771800 0.15643200
vt 0.04771800 0.13905000
vt 0.04771800 0.12166900
vt 0.04771800 0.10428800
vt 0.04771800 0.08690600
vt 0.04771800 0.06952500
vt 0.04771800 0.05214400
vt 0.04771800 0.03476300
vt 0.04771800 0.01738100
vt 0.07084400 0.01709200
vt 0.07084400 0.04990900
vt 0.07084400 0.06599900
vt 0.07084400 0.08208900
vt 0.07084400 0.09817900
vt 0.07084400 0.11427000
vt 0.07084400 0.13036000
vt 0.07084400 0.16399400
vt 0.07084400 0.14745100
vt 0.07084400 0.18026900
vt 0.07084400 0.19635900
vt 0.07084400 0.21244900
vt 0.07084400 0.22853900
vt 0.07084400 0.24462900
f 20/20/20 13/13/13 12/12/12
f 12/12/12 18/18/18 20/20/20
f 13/13/13 15/15/15 14/14/14
f 14/14/14 12/12/12 13/13/13
f 12/12/12 14/14/14 17/17/17
f 17/17/17 16/16/16 12/12/12
f 18/18/18 12/12/12 16/16/16
f 16/16/16 19/19/19 18/18/18
f 17/17/17 2/2/2 3/3/3
f 2/2/2 14/14/14 1/1/1
f 4/4/4 17/17/17 3/3/3
f 16/16/16 17/17/17 5/5/5
f 2/2/2 17/17/17 14/14/14
f 4/4/4 5/5/5 17/17/17
f 34/34/34 1/1/1 14/14/14
f 15/15/15 32/32/32 33/33/33
f 32/32/32 15/15/15 31/31/31
f 14/14/14 33/33/33 34/34/34
f 31/31/31 15/15/15 30/30/30
f 29/29/29 30/30/30 15/15/15
f 29/29/29 13/13/13 28/28/28
f 15/15/15 13/13/13 29/29/29
f 33/33/33 14/14/14 15/15/15
f 5/5/5 6/6/6 16/16/16
f 19/19/19 16/16/16 7/7/7
f 6/6/6 7/7/7 16/16/16
f 10/10/10 18/18/18 19/19/19
f 19/19/19 7/7/7 8/8/8
f 19/19/19 9/9/9 10/10/10
f 10/10/10 11/11/11 18/18/18
f 9/9/9 19/19/19 8/8/8
f 21/21/21 18/18/18 11/11/11
f 25/25/25 26/26/26 20/20/20
f 13/13/13 20/20/20 26/26/26
f 13/13/13 26/26/26 27/27/27
f 28/28/28 13/13/13 27/27/27
f 18/18/18 22/22/22 20/20/20
f 24/24/24 20/20/20 23/23/23
f 22/22/22 23/23/23 20/20/20
f 25/25/25 20/20/20 24/24/24
f 18/18/18 21/21/21 22/22/22
f 42/42/42 43/43/43 35/35/35
f 43/43/43 42/42/42 60/60/60
f 43/43/43 60/60/60 59/59/59
f 59/59/59 44/44/44 43/43/43
f 44/44/44 59/59/59 58/58/58
f 58/58/58 45/45/45 44/44/44
f 45/45/45 58/58/58 57/57/57
f 57/57/57 46/46/46 45/45/45
f 40/40/40 60/60/60 41/41/41
f 60/60/60 42/42/42 41/41/41
f 56/56/56 47/47/47 46/46/46
f 46/46/46 57/57/57 56/56/56
f 47/47/47 56/56/56 55/55/55
f 55/55/55 48/48/48 47/47/47
f 48/48/48 55/55/55 54/54/54
f 54/54/54 49/49/49 48/48/48
f 50/50/50 53/53/53 52/52/52
f 52/52/52 51/51/51 50/50/50
f 38/38/38 37/37/37 51/51/51
f 49/49/49 54/54/54 53/53/53
f 53/53/53 50/50/50 49/49/49
f 52/52/52 39/39/39 38/38/38
f 39/39/39 52/52/52 36/36/36
f 38/38/38 51/51/51 52/52/52
f 79/79/79 76/76/76 72/72/72
f 72/72/72 78/78/78 79/79/79
f 78/78/78 72/72/72 74/74/74
f 74/74/74 80/80/80 78/78/78
f 72/72/72 73/73/73 75/75/75
f 75/75/75 74/74/74 72/72/72
f 76/76/76 77/77/77 73/73/73
f 73/73/73 72/72/72 76/76/76
f 90/90/90 89/89/89 75/75/75
f 89/89/89 88/88/88 74/74/74
f 75/75/75 91/91/91 90/90/90
f 75/75/75 93/93/93 92/92/92
f 75/75/75 89/89/89 74/74/74
f 92/92/92 91/91/91 75/75/75
f 87/87/87 74/74/74 88/88/88
f 80/80/80 86/86/86 85/85/85
f 85/85/85 84/84/84 80/80/80
f 74/74/74 87/87/87 86/86/86
f 82/82/82 80/80/80 83/83/83
f 84/84/84 83/83/83 80/80/80
f 82/82/82 81/81/81 78/78/78
f 80/80/80 82/82/82 78/78/78
f 86/86/86 80/80/80 74/74/74
f 93/93/93 75/75/75 73/73/73
f 73/73/73 61/61/61 94/94/94
f 77/77/77 62/62/62 73/73/73
f 61/61/61 73/73/73 62/62/62
f 77/77/77 64/64/64 63/63/63
f 64/64/64 77/77/77 65/65/65
f 62/62/62 77/77/77 63/63/63
f 65/65/65 77/77/77 76/76/76
f 79/79/79 78/78/78 70/70/70
f 78/78/78 71/71/71 70/70/70
f 78/78/78 81/81/81 71/71/71
f 76/76/76 79/79/79 67/67/67
f 69/69/69 68/68/68 79/79/79
f 67/67/67 79/79/79 68/68/68
f 70/70/70 69/69/69 79/79/79
f 66/66/66 76/76/76 67/67/67
f 66/66/66 65/65/65 76/76/76
f 73/73/73 94/94/94 93/93/93
f 102/102/102 103/103/103 95/95/95
f 103/103/103 102/102/102 120/120/120
f 103/103/103 120/120/120 119/119/119
f 119/119/119 104/104/104 103/103/103
f 104/104/104 119/119/119 118/118/118
f 118/118/118 105/105/105 104/104/104
f 105/105/105 118/118/118 117/117/117
f 117/117/117 106/106/106 105/105/105
f 100/100/100 120/120/120 101/101/101
f 120/120/120 102/102/102 101/101/101
f 116/116/116 107/107/107 106/106/106
f 106/106/106 117/117/117 116/116/116
f 107/107/107 116/116/116 115/115/115
f 115/115/115 108/108/108 107/107/107
f 108/108/108 115/115/115 114/114/114
f 114/114/114 109/109/109 108/108/108
f 110/110/110 113/113/113 112/112/112
f 112/112/112 111/111/111 110/110/110
f 98/98/98 97/97/97 111/111/111
f 109/109/109 114/114/114 113/113/113
f 113/113/113 110/110/110 109/109/109
f 112/112/112 99/99/99 98/98/98
f 99/99/99 112/112/112 96/96/96
f 98/98/98 111/111/111 112/112/112
f 131/131/131 122/122/122 121/121/121
f 121/121/121 130/130/130 131/131/131
f 132/132/132 123/123/123 122/122/122
f 122/122/122 131/131/131 132/132/132
f 227/227/227 133/133/133 232/232/232
f 232/232/232 124/124/124 123/123/123
f 123/123/123 132/132/132 227/227/227
f 227/227/227 232/232/232 123/123/123
f 230/230/230 125/125/125 231/231/231
f 231/231/231 233/233/233 230/230/230
f 233/233/233 231/231/231 124/124/124
f 124/124/124 232/232/232 233/233/233
f 248/248/248 126/126/126 249/249/249
f 249/249/249 250/250/250 248/248/248
f 250/250/250 249/249/249 125/125/125
f 125/125/125 230/230/230 250/250/250
f 248/248/248 134/134/134 253/253/253
f 253/253/253 135/135/135 127/127/127
f 127/127/127 126/126/126 248/248/248
f 248/248/248 253/253/253 127/127/127
f 136/136/136 128/128/128 127/127/127
f 127/127/127 135/135/135 136/136/136
f 137/137/137 129/129/129 128/128/128
f 128/128/128 136/136/136 137/137/137
f 139/139/139 131/131/131 130/130/130
f 130/130/130 138/138/138 139/139/139
f 228/228/228 132/132/132 131/131/131
f 139/139/139 140/140/140 228/228/228
f 131/131/131 139/139/139 228/228/228
f 229/229/229 227/227/227 132/132/132
f 132/132/132 228/228/228 229/229/229
f 226/226/226 229/229/229 228/228/228
f 228/228/228 140/140/140 226/226/226
f 141/141/141 252/252/252 254/254/254
f 254/254/254 251/251/251 141/141/141
f 252/252/252 135/135/135 253/253/253
f 253/253/253 254/254/254 252/252/252
f 252/252/252 141/141/141 142/142/142
f 136/136/136 135/135/135 252/252/252
f 142/142/142 136/136/136 252/252/252
f 143/143/143 137/137/137 136/136/136
f 136/136/136 142/142/142 143/143/143
f 145/145/145 139/139/139 138/138/138
f 138/138/138 144/144/144 145/145/145
f 146/146/146 140/140/140 139/139/139
f 139/139/139 145/145/145 146/146/146
f 151/151/151 142/142/142 141/141/141
f 141/141/141 150/150/150 151/151/151
f 152/152/152 143/143/143 142/142/142
f 142/142/142 151/151/151 152/152/152
f 154/154/154 145/145/145 144/144/144
f 144/144/144 153/153/153 154/154/154
f 155/155/155 146/146/146 145/145/145
f 145/145/145 154/154/154 155/155/155
f 156/156/156 147/147/147 146/146/146
f 146/146/146 155/155/155 156/156/156
f 225/225/225 147/147/147 156/156/156
f 157/157/157 148/148/148 225/225/225
f 156/156/156 157/157/157 225/225/225
f 255/255/255 148/148/148 157/157/157
f 158/158/158 149/149/149 255/255/255
f 157/157/157 158/158/158 255/255/255
f 159/159/159 150/150/150 149/149/149
f 149/149/149 158/158/158 159/159/159
f 160/160/160 151/151/151 150/150/150
f 150/150/150 159/159/159 160/160/160
f 161/161/161 152/152/152 151/151/151
f 151/151/151 160/160/160 161/161/161
f 163/163/163 154/154/154 153/153/153
f 153/153/153 162/162/162 163/163/163
f 164/164/164 155/155/155 154/154/154
f 154/154/154 163/163/163 164/164/164
f 165/165/165 156/156/156 155/155/155
f 155/155/155 164/164/164 165/165/165
f 213/213/213 166/166/166 157/157/157
f 156/156/156 165/165/165 213/213/213
f 157/157/157 156/156/156 213/213/213
f 270/270/270 167/167/167 158/158/158
f 157/157/157 166/166/166 270/270/270
f 158/158/158 157/157/157 270/270/270
f 168/168/168 159/159/159 158/158/158
f 158/158/158 167/167/167 168/168/168
f 169/169/169 160/160/160 159/159/159
f 159/159/159 168/168/168 169/169/169
f 170/170/170 161/161/161 160/160/160
f 160/160/160 169/169/169 170/170/170
f 172/172/172 163/163/163 162/162/162
f 162/162/162 171/171/171 172/172/172
f 173/173/173 164/164/164 163/163/163
f 163/163/163 172/172/172 173/173/173
f 175/175/175 169/169/169 168/168/168
f 168/168/168 174/174/174 175/175/175
f 176/176/176 170/170/170 169/169/169
f 169/169/169 175/175/175 176/176/176
f 178/178/178 172/172/172 171/171/171
f 171/171/171 177/177/177 178/178/178
f 211/211/211 173/173/173 172/172/172
f 178/178/178 179/179/179 211/211/211
f 172/172/172 178/178/178 211/211/211
f 212/212/212 210/210/210 173/173/173
f 173/173/173 211/211/211 212/212/212
f 209/209/209 212/212/212 211/211/211
f 211/211/211 179/179/179 209/209/209
f 182/182/182 272/272/272 274/274/274
f 274/274/274 271/271/271 182/182/182
f 272/272/272 174/174/174 273/273/273
f 273/273/273 274/274/274 272/272/272
f 272/272/272 182/182/182 183/183/183
f 175/175/175 174/174/174 272/272/272
f 183/183/183 175/175/175 272/272/272
f 184/184/184 176/176/176 175/175/175
f 175/175/175 183/183/183 184/184/184
f 186/186/186 178/178/178 177/177/177
f 177/177/177 185/185/185 186/186/186
f 187/187/187 179/179/179 178/178/178
f 178/178/178 186/186/186 187/187/187
f 207/207/207 180/180/180 209/209/209
f 209/209/209 179/179/179 187/187/187
f 187/187/187 188/188/188 207/207/207
f 207/207/207 209/209/209 187/187/187
f 189/189/189 206/206/206 208/208/208
f 208/208/208 205/205/205 189/189/189
f 205/205/205 208/208/208 207/207/207
f 207/207/207 188/188/188 205/205/205
f 190/190/190 276/276/276 277/277/277
f 277/277/277 275/275/275 190/190/190
f 275/275/275 277/277/277 206/206/206
f 206/206/206 189/189/189 275/275/275
f 271/271/271 181/181/181 276/276/276
f 276/276/276 190/190/190 191/191/191
f 191/191/191 182/182/182 271/271/271
f 271/271/271 276/276/276 191/191/191
f 192/192/192 183/183/183 182/182/182
f 182/182/182 191/191/191 192/192/192
f 193/193/193 184/184/184 183/183/183
f 183/183/183 192/192/192 193/193/193
f 121/121/121 324/324/324 325/325/325
f 122/122/122 323/323/323 324/324/324
f 122/122/122 322/322/322 323/323/323
f 325/325/325 326/326/326 121/121/121
f 328/328/328 121/121/121 327/327/327
f 328/328/328 130/130/130 121/121/121
f 121/121/121 122/122/122 324/324/324
f 122/122/122 123/123/123 321/321/321
f 321/321/321 322/322/322 122/122/122
f 121/121/121 326/326/326 327/327/327
f 320/320/320 321/321/321 123/123/123
f 123/123/123 124/124/124 320/320/320
f 124/124/124 231/231/231 319/319/319
f 319/319/319 320/320/320 124/124/124
f 125/125/125 319/319/319 231/231/231
f 318/318/318 319/319/319 125/125/125
f 233/233/233 232/232/232 222/222/222
f 232/232/232 133/133/133 222/222/222
f 223/223/223 233/233/233 222/222/222
f 224/224/224 230/230/230 223/223/223
f 233/233/233 223/223/223 230/230/230
f 224/224/224 234/234/234 230/230/230
f 328/328/328 329/329/329 130/130/130
f 138/138/138 130/130/130 330/330/330
f 330/330/330 331/331/331 138/138/138
f 329/329/329 330/330/330 130/130/130
f 220/220/220 227/227/227 229/229/229
f 331/331/331 332/332/332 144/144/144
f 144/144/144 138/138/138 331/331/331
f 144/144/144 332/332/332 333/333/333
f 333/333/333 153/153/153 144/144/144
f 153/153/153 333/333/333 334/334/334
f 146/146/146 226/226/226 140/140/140
f 220/220/220 133/133/133 227/227/227
f 219/219/219 229/229/229 226/226/226
f 218/218/218 219/219/219 226/226/226
f 220/220/220 229/229/229 219/219/219
f 133/133/133 220/220/220 221/221/221
f 218/218/218 226/226/226 217/217/217
f 222/222/222 133/133/133 221/221/221
f 216/216/216 217/217/217 147/147/147
f 226/226/226 147/147/147 217/217/217
f 225/225/225 216/216/216 147/147/147
f 148/148/148 214/214/214 215/215/215
f 216/216/216 225/225/225 215/215/215
f 225/225/225 148/148/148 215/215/215
f 147/147/147 226/226/226 146/146/146
f 125/125/125 249/249/249 318/318/318
f 317/317/317 318/318/318 249/249/249
f 249/249/249 126/126/126 317/317/317
f 316/316/316 317/317/317 126/126/126
f 126/126/126 127/127/127 316/316/316
f 250/250/250 236/236/236 248/248/248
f 235/235/235 236/236/236 250/250/250
f 248/248/248 237/237/237 134/134/134
f 239/239/239 253/253/253 134/134/134
f 237/237/237 248/248/248 236/236/236
f 234/234/234 235/235/235 250/250/250
f 230/230/230 234/234/234 250/250/250
f 129/129/129 312/312/312 313/313/313
f 313/313/313 314/314/314 128/128/128
f 310/310/310 311/311/311 129/129/129
f 311/311/311 312/312/312 129/129/129
f 128/128/128 314/314/314 315/315/315
f 127/127/127 128/128/128 315/315/315
f 315/315/315 316/316/316 127/127/127
f 313/313/313 128/128/128 129/129/129
f 308/308/308 309/309/309 137/137/137
f 129/129/129 137/137/137 309/309/309
f 307/307/307 308/308/308 137/137/137
f 310/310/310 129/129/129 309/309/309
f 149/149/149 243/243/243 244/244/244
f 253/253/253 239/239/239 254/254/254
f 251/251/251 242/242/242 243/243/243
f 238/238/238 239/239/239 134/134/134
f 247/247/247 255/255/255 246/246/246
f 148/148/148 255/255/255 247/247/247
f 149/149/149 245/245/245 255/255/255
f 246/246/246 255/255/255 245/245/245
f 244/244/244 245/245/245 149/149/149
f 243/243/243 149/149/149 251/251/251
f 241/241/241 254/254/254 240/240/240
f 239/239/239 240/240/240 254/254/254
f 251/251/251 254/254/254 241/241/241
f 137/137/137 143/143/143 306/306/306
f 306/306/306 307/307/307 137/137/137
f 150/150/150 141/141/141 251/251/251
f 241/241/241 242/242/242 251/251/251
f 152/152/152 161/161/161 304/304/304
f 304/304/304 305/305/305 152/152/152
f 143/143/143 152/152/152 305/305/305
f 305/305/305 306/306/306 143/143/143
f 251/251/251 149/149/149 150/150/150
f 238/238/238 134/134/134 237/237/237
f 247/247/247 214/214/214 148/148/148
f 162/162/162 334/334/334 335/335/335
f 335/335/335 336/336/336 171/171/171
f 171/171/171 162/162/162 335/335/335
f 177/177/177 171/171/171 336/336/336
f 336/336/336 337/337/337 177/177/177
f 278/278/278 177/177/177 337/337/337
f 199/199/199 210/210/210 212/212/212
f 164/164/164 173/173/173 210/210/210
f 165/165/165 164/164/164 210/210/210
f 213/213/213 165/165/165 202/202/202
f 201/201/201 202/202/202 165/165/165
f 203/203/203 213/213/213 202/202/202
f 204/204/204 166/166/166 203/203/203
f 213/213/213 203/203/203 166/166/166
f 204/204/204 256/256/256 166/166/166
f 200/200/200 210/210/210 199/199/199
f 210/210/210 201/201/201 165/165/165
f 199/199/199 212/212/212 198/198/198
f 198/198/198 180/180/180 197/197/197
f 180/180/180 198/198/198 209/209/209
f 201/201/201 210/210/210 200/200/200
f 209/209/209 198/198/198 212/212/212
f 185/185/185 177/177/177 279/279/279
f 280/280/280 185/185/185 279/279/279
f 185/185/185 283/283/283 186/186/186
f 187/187/187 186/186/186 285/285/285
f 285/285/285 286/286/286 187/187/187
f 280/280/280 281/281/281 185/185/185
f 185/185/185 282/282/282 283/283/283
f 186/186/186 283/283/283 284/284/284
f 284/284/284 285/285/285 186/186/186
f 281/281/281 282/282/282 185/185/185
f 188/188/188 187/187/187 286/286/286
f 286/286/286 287/287/287 188/188/188
f 196/196/196 180/180/180 207/207/207
f 208/208/208 196/196/196 207/207/207
f 206/206/206 194/194/194 195/195/195
f 196/196/196 208/208/208 195/195/195
f 208/208/208 206/206/206 195/195/195
f 180/180/180 196/196/196 197/197/197
f 205/205/205 188/188/188 287/287/287
f 287/287/287 288/288/288 205/205/205
f 288/288/288 189/189/189 205/205/205
f 289/289/289 189/189/189 288/288/288
f 177/177/177 278/278/278 279/279/279
f 194/194/194 206/206/206 269/269/269
f 257/257/257 270/270/270 256/256/256
f 166/166/166 256/256/256 270/270/270
f 258/258/258 270/270/270 257/257/257
f 259/259/259 167/167/167 258/258/258
f 270/270/270 258/258/258 167/167/167
f 260/260/260 167/167/167 259/259/259
f 265/265/265 181/181/181 264/264/264
f 274/274/274 263/263/263 264/264/264
f 261/261/261 273/273/273 260/260/260
f 274/274/274 264/264/264 271/271/271
f 273/273/273 167/167/167 260/260/260
f 170/170/170 176/176/176 301/301/301
f 301/301/301 302/302/302 170/170/170
f 161/161/161 170/170/170 302/302/302
f 302/302/302 303/303/303 161/161/161
f 304/304/304 161/161/161 303/303/303
f 274/274/274 273/273/273 262/262/262
f 167/167/167 273/273/273 168/168/168
f 263/263/263 274/274/274 262/262/262
f 176/176/176 184/184/184 300/300/300
f 300/300/300 301/301/301 176/176/176
f 168/168/168 273/273/273 174/174/174
f 273/273/273 261/261/261 262/262/262
f 266/266/266 181/181/181 265/265/265
f 277/277/277 268/268/268 269/269/269
f 277/277/277 269/269/269 206/206/206
f 267/267/267 268/268/268 277/277/277
f 181/181/181 266/266/266 276/276/276
f 267/267/267 276/276/276 266/266/266
f 264/264/264 181/181/181 271/271/271
f 277/277/277 276/276/276 267/267/267
f 289/289/289 290/290/290 190/190/190
f 190/190/190 275/275/275 289/289/289
f 290/290/290 291/291/291 191/191/191
f 191/191/191 190/190/190 290/290/290
f 275/275/275 189/189/189 289/289/289
f 192/192/192 191/191/191 291/291/291
f 291/291/291 292/292/292 192/192/192
f 299/299/299 184/184/184 298/298/298
f 193/193/193 298/298/298 184/184/184
f 297/297/297 298/298/298 193/193/193
f 193/193/193 192/192/192 294/294/294
f 300/300/300 184/184/184 299/299/299
f 192/192/192 293/293/293 294/294/294
f 193/193/193 294/294/294 295/295/295
f 193/193/193 296/296/296 297/297/297
f 296/296/296 193/193/193 295/295/295
f 292/292/292 293/293/293 192/192/192
f 153/153/153 334/334/334 162/162/162
f 342/342/342 346/346/346 338/338/338
f 374/374/374 347/347/347 346/346/346
f 342/342/342 374/374/374 346/346/346
f 375/375/375 347/347/347 374/374/374
f 374/374/374 373/373/373 372/372/372
f 372/372/372 375/375/375 374/374/374
f 341/341/341 374/374/374 342/342/342
f 375/375/375 348/348/348 347/347/347
f 348/348/348 375/375/375 376/376/376
f 376/376/376 349/349/349 348/348/348
f 377/377/377 350/350/350 349/349/349
f 349/349/349 376/376/376 377/377/377
f 350/350/350 377/377/377 378/378/378
f 378/378/378 351/351/351 350/350/350
f 351/351/351 378/378/378 379/379/379
f 379/379/379 352/352/352 351/351/351
f 375/375/375 371/371/371 370/370/370
f 370/370/370 376/376/376 375/375/375
f 340/340/340 373/373/373 341/341/341
f 373/373/373 374/374/374 341/341/341
f 375/375/375 372/372/372 371/371/371
f 377/377/377 369/369/369 368/368/368
f 368/368/368 378/378/378 377/377/377
f 378/378/378 368/368/368 367/367/367
f 367/367/367 379/379/379 378/378/378
f 366/366/366 380/380/380 379/379/379
f 379/379/379 367/367/367 366/366/366
f 380/380/380 352/352/352 379/379/379
f 369/369/369 377/377/377 376/376/376
f 376/376/376 370/370/370 369/369/369
f 380/380/380 353/353/353 352/352/352
f 353/353/353 382/382/382 381/381/381
f 381/381/381 354/354/354 353/353/353
f 354/354/354 381/381/381 383/383/383
f 383/383/383 355/355/355 354/354/354
f 365/365/365 381/381/381 382/382/382
f 381/381/381 365/365/365 364/364/364
f 364/364/364 383/383/383 381/381/381
f 355/355/355 383/383/383 384/384/384
f 384/384/384 356/356/356 355/355/355
f 380/380/380 366/366/366 382/382/382
f 356/356/356 384/384/384 385/385/385
f 385/385/385 357/357/357 356/356/356
f 357/357/357 385/385/385 386/386/386
f 386/386/386 358/358/358 357/357/357
f 344/344/344 343/343/343 359/359/359
f 358/358/358 386/386/386 387/387/387
f 387/387/387 359/359/359 358/358/358
f 359/359/359 387/387/387 344/344/344
f 366/366/366 365/365/365 382/382/382
f 383/383/383 364/364/364 363/363/363
f 363/363/363 384/384/384 383/383/383
f 362/362/362 385/385/385 384/384/384
f 384/384/384 363/363/363 362/362/362
f 385/385/385 362/362/362 361/361/361
f 361/361/361 386/386/386 385/385/385
f 386/386/386 361/361/361 360/360/360
f 360/360/360 387/387/387 386/386/386
f 360/360/360 339/339/339 345/345/345
f 360/360/360 345/345/345 387/387/387
f 345/345/345 344/344/344 387/387/387
f 353/353/353 380/380/380 382/382/382
f 392/392/392 396/396/396 388/388/388
f 424/424/424 397/397/397 396/396/396
f 392/392/392 424/424/424 396/396/396
f 425/425/425 397/397/397 424/424/424
f 424/424/424 423/423/423 422/422/422
f 422/422/422 425/425/425 424/424/424
f 391/391/391 424/424/424 392/392/392
f 425/425/425 398/398/398 397/397/397
f 398/398/398 425/425/425 426/426/426
f 426/426/426 399/399/399 398/398/398
f 427/427/427 400/400/400 399/399/399
f 399/399/399 426/426/426 427/427/427
f 400/400/400 427/427/427 428/428/428
f 428/428/428 401/401/401 400/400/400
f 401/401/401 428/428/428 429/429/429
f 429/429/429 402/402/402 401/401/401
f 425/425/425 421/421/421 420/420/420
f 420/420/420 426/426/426 425/425/425
f 390/390/390 423/423/423 391/391/391
f 423/423/423 424/424/424 391/391/391
f 425/425/425 422/422/422 421/421/421
f 427/427/427 419/419/419 418/418/418
f 418/418/418 428/428/428 427/427/427
f 428/428/428 418/418/418 417/417/417
f 417/417/417 429/429/429 428/428/428
f 416/416/416 430/430/430 429/429/429
f 429/429/429 417/417/417 416/416/416
f 430/430/430 402/402/402 429/429/429
f 419/419/419 427/427/427 426/426/426
f 426/426/426 420/420/420 419/419/419
f 430/430/430 403/403/403 402/402/402
f 403/403/403 432/432/432 431/431/431
f 431/431/431 404/404/404 403/403/403
f 404/404/404 431/431/431 433/433/433
f 433/433/433 405/405/405 404/404/404
f 415/415/415 431/431/431 432/432/432
f 431/431/431 415/415/415 414/414/414
f 414/414/414 433/433/433 431/431/431
f 405/405/405 433/433/433 434/434/434
f 434/434/434 406/406/406 405/405/405
f 430/430/430 416/416/416 432/432/432
f 406/406/406 434/434/434 435/435/435
f 435/435/435 407/407/407 406/406/406
f 407/407/407 435/435/435 436/436/436
f 436/436/436 408/408/408 407/407/407
f 394/394/394 393/393/393 409/409/409
f 408/408/408 436/436/436 437/437/437
f 437/437/437 409/409/409 408/408/408
f 409/409/409 437/437/437 394/394/394
f 416/416/416 415/415/415 432/432/432
f 433/433/433 414/414/414 413/413/413
f 413/413/413 434/434/434 433/433/433
f 412/412/412 435/435/435 434/434/434
f 434/434/434 413/413/413 412/412/412
f 435/435/435 412/412/412 411/411/411
f 411/411/411 436/436/436 435/435/435
f 436/436/436 411/411/411 410/410/410
f 410/410/410 437/437/437 436/436/436
f 410/410/410 389/389/389 395/395/395
f 410/410/410 395/395/395 437/437/437
f 395/395/395 394/394/394 437/437/437
f 403/403/403 430/430/430 432/432/432

